<?xml version="1.0" encoding="utf-8"?>
<!-- Generator: Adobe Illustrator 25.4.1, SVG Export Plug-In . SVG Version: 6.00 Build 0)  -->
<svg version="1.1" xmlns="http://www.w3.org/2000/svg" xmlns:xlink="http://www.w3.org/1999/xlink" x="0px" y="0px"
	 viewBox="0 0 726.13 347.74" style="enable-background:new 0 0 726.13 347.74;" xml:space="preserve">
<style type="text/css">
	.st0{display:none;}
	.st1{display:inline;fill:url(#SVGID_1_);}
	.st2{display:inline;}
	.st3{fill:#FFFFFF;}
	.st4{fill:url(#SVGID_00000071528270143419348780000015938321662208392633_);}
	.st5{fill:url(#SVGID_00000029020564411778229230000014928525683196364726_);}
	.st6{fill:#5FB683;}
	.st7{fill:url(#SVGID_00000181058620510741897470000009682412053459216826_);}
	.st8{fill:url(#SVGID_00000159435271481977435310000008193434834896368058_);}
	.st9{fill:#5B7A97;}
	.st10{fill:url(#SVGID_00000151539372485440708620000010763515677195051161_);}
	.st11{fill:url(#SVGID_00000039819544624502646970000015537977863055119799_);}
	.st12{fill:#B8D433;}
	.st13{fill:url(#SVGID_00000121962403983873354100000006791111374153873819_);}
	.st14{fill:url(#SVGID_00000028284868431241598620000003744473259265725602_);}
	.st15{display:inline;fill:url(#SVGID_00000093859899126259565600000002341858148666223286_);}
	.st16{display:inline;fill:url(#SVGID_00000131331508510876781640000005191181402536482736_);}
</style>
<g id="Layer_1">
</g>
<g id="Layer_2">
</g>
<g id="Layer_3" class="st0">
	<linearGradient id="SVGID_1_" gradientUnits="userSpaceOnUse" x1="-245.2052" y1="-434.3423" x2="-744.3039" y2="170.3456">
		<stop  offset="0" style="stop-color:#5FB683"/>
		<stop  offset="1" style="stop-color:#5FB683"/>
	</linearGradient>
	<rect x="-984.52" y="-210.83" class="st1" width="841.89" height="324.42"/>
	<g class="st2">
		<path class="st3" d="M-612.7-39.21v-0.14c0-14.11,10.64-25.67,25.89-25.67c9.36,0,14.96,3.12,19.58,7.66l-6.95,8.01
			c-3.83-3.48-7.73-5.6-12.7-5.6c-8.37,0-14.4,6.95-14.4,15.46v0.14c0,8.51,5.89,15.6,14.4,15.6c5.67,0,9.15-2.27,13.05-5.82
			l6.95,7.02c-5.11,5.46-10.78,8.87-20.36,8.87C-601.85-13.67-612.7-24.95-612.7-39.21z"/>
		<path class="st3" d="M-561.56-25.45v-0.14c0-8.3,6.31-12.13,15.32-12.13c3.83,0,6.6,0.64,9.29,1.56v-0.64
			c0-4.47-2.77-6.95-8.16-6.95c-4.11,0-7.02,0.78-10.5,2.06l-2.7-8.23c4.18-1.84,8.3-3.05,14.75-3.05c5.89,0,10.14,1.56,12.84,4.26
			c2.84,2.84,4.11,7.02,4.11,12.13v22.06h-10.43v-4.11c-2.62,2.91-6.24,4.82-11.49,4.82C-555.67-13.82-561.56-17.93-561.56-25.45z
			 M-536.81-27.93v-1.92c-1.84-0.85-4.26-1.42-6.88-1.42c-4.61,0-7.45,1.84-7.45,5.25v0.14c0,2.91,2.41,4.61,5.89,4.61
			C-540.21-21.26-536.81-24.03-536.81-27.93z"/>
		<path class="st3" d="M-516.8-66.3h10.78v51.77h-10.78V-66.3z"/>
		<path class="st3" d="M-495.67-66.3h11.35v9.57h-11.35V-66.3z M-495.38-52.54h10.78v38.01h-10.78V-52.54z"/>
		<path class="st3" d="M-472.62-43.32h-4.47v-8.87h4.47v-2.41c0-4.18,1.06-7.23,3.05-9.22c1.99-1.99,4.89-2.98,8.72-2.98
			c3.4,0,5.67,0.43,7.66,1.06v8.94c-1.56-0.57-3.05-0.92-4.89-0.92c-2.48,0-3.9,1.28-3.9,4.11v1.49h8.72v8.79h-8.58v28.79h-10.78
			V-43.32z M-447.16-66.3h11.35v9.57h-11.35V-66.3z M-446.87-52.54h10.78v38.01h-10.78V-52.54z"/>
		<path class="st3" d="M-427.22-41.69h21.84v10.35h-21.84V-41.69z"/>
		<path class="st3" d="M-395.87-64.17h10.92v21.7l20.14-21.7h13.19l-20.21,21.06l21.14,28.58h-13.12l-15.39-21.13l-5.74,5.96v15.18
			h-10.92V-64.17z"/>
	</g>
	<g class="st2">
		
			<linearGradient id="SVGID_00000118396011893414000570000014412993006937597351_" gradientUnits="userSpaceOnUse" x1="-664.2398" y1="-128.3163" x2="-784.0742" y2="-30.3306">
			<stop  offset="0" style="stop-color:#FFFFFF"/>
			<stop  offset="0.1874" style="stop-color:#F9F9F9"/>
			<stop  offset="0.4434" style="stop-color:#E7E8E8"/>
			<stop  offset="0.7374" style="stop-color:#CBCCCD"/>
			<stop  offset="1" style="stop-color:#ABADAF"/>
		</linearGradient>
		<path style="fill:url(#SVGID_00000118396011893414000570000014412993006937597351_);" d="M-729.35-42.62
			c14.2,0,25.72,11.51,25.72,25.72s-11.51,25.72-25.72,25.72h-0.12c-33.68,0-61.5-21.42-72.11-51.47 M-729.35-42.69
			c-14.2,0-25.72-11.51-25.72-25.72S-744.8-94.2-730.6-94.2l0.26-0.02c0.57-0.01,1.13-0.02,1.7-0.02
			c39.41,0,62.33,21.53,72.94,51.59c2.84-8.06,4.4-16.72,4.4-25.75c0-42.71-34.63-77.34-77.34-77.34s-77.34,34.63-77.34,77.34
			c0,9.03,1.55,17.7,4.4,25.75"/>
		
			<linearGradient id="SVGID_00000064324744945857826730000003781003242132215729_" gradientUnits="userSpaceOnUse" x1="-694.4825" y1="-81.6306" x2="-763.5799" y2="47.0799">
			<stop  offset="0" style="stop-color:#FFFFFF"/>
			<stop  offset="0.1874" style="stop-color:#F9F9F9"/>
			<stop  offset="0.4434" style="stop-color:#E7E8E8"/>
			<stop  offset="0.7374" style="stop-color:#CBCCCD"/>
			<stop  offset="1" style="stop-color:#ABADAF"/>
		</linearGradient>
		<path style="fill:url(#SVGID_00000064324744945857826730000003781003242132215729_);" d="M-730.07-42.76
			c-14.2,0-25.72-11.51-25.72-25.72s11.56-26.05,25.76-26.05h0.12c33.68,0,60.09,14.14,74.21,51.81 M-730.07-42.69
			c14.2,0,25.72,11.51,25.72,25.72s-10.27,25.79-24.47,25.79l-0.26,0.02c-0.57,0.01-1.13,0.06-1.7,0.02
			c-39.8-2.93-57.73-22.54-70.8-51.59c-2.84,8.06-5.11,16.72-5.11,25.75c0,42.71,33.2,77.34,75.91,77.34s77.34-34.63,77.34-77.34
			c0-9.03,0.59-17.7-2.25-25.75"/>
	</g>
	<g class="st2">
		<g>
			<path class="st6" d="M-794.38,238.64v-0.1c0-9.73,7.34-17.7,17.85-17.7c6.46,0,10.32,2.15,13.5,5.28l-4.79,5.53
				c-2.64-2.4-5.33-3.86-8.75-3.86c-5.77,0-9.93,4.79-9.93,10.66v0.1c0,5.87,4.06,10.76,9.93,10.76c3.91,0,6.31-1.56,9-4.01
				l4.79,4.84c-3.52,3.77-7.43,6.11-14.04,6.11C-786.9,256.24-794.38,248.47-794.38,238.64z"/>
			<path class="st6" d="M-759.12,248.12v-0.1c0-5.72,4.35-8.36,10.56-8.36c2.64,0,4.55,0.44,6.41,1.08v-0.44
				c0-3.08-1.91-4.79-5.62-4.79c-2.84,0-4.84,0.54-7.24,1.42l-1.86-5.67c2.89-1.27,5.72-2.1,10.17-2.1c4.06,0,6.99,1.08,8.85,2.93
				c1.96,1.96,2.84,4.84,2.84,8.36v15.21h-7.19v-2.84c-1.81,2-4.3,3.33-7.92,3.33C-755.07,256.14-759.12,253.31-759.12,248.12z
				 M-742.06,246.41v-1.32c-1.27-0.59-2.93-0.98-4.74-0.98c-3.18,0-5.14,1.27-5.14,3.62v0.1c0,2,1.66,3.18,4.06,3.18
				C-744.41,251.01-742.06,249.1-742.06,246.41z"/>
			<path class="st6" d="M-728.27,219.95h7.43v35.7h-7.43V219.95z"/>
			<path class="st6" d="M-713.69,219.95h7.82v6.6h-7.82V219.95z M-713.5,229.44h7.43v26.21h-7.43V229.44z"/>
			<path class="st6" d="M-697.8,235.8h-3.08v-6.11h3.08v-1.66c0-2.89,0.73-4.99,2.1-6.36s3.37-2.05,6.01-2.05
				c2.35,0,3.91,0.29,5.28,0.73v6.16c-1.08-0.39-2.1-0.64-3.38-0.64c-1.71,0-2.69,0.88-2.69,2.84v1.03h6.02v6.06h-5.92v19.85h-7.43
				V235.8z M-680.25,219.95h7.83v6.6h-7.83V219.95z M-680.05,229.44h7.43v26.21h-7.43V229.44z"/>
			<path class="st6" d="M-666.5,236.92h15.06v7.14h-15.06V236.92z"/>
			<path class="st6" d="M-644.89,221.42h7.53v14.96l13.89-14.96h9.1l-13.94,14.52l14.57,19.71h-9.05l-10.61-14.57l-3.96,4.11v10.46
				h-7.53V221.42z"/>
		</g>
		
			<linearGradient id="SVGID_00000106866878106951338270000018065045148911106714_" gradientUnits="userSpaceOnUse" x1="-838.854" y1="176.2194" x2="-907.9005" y2="257.6662">
			<stop  offset="0" style="stop-color:#B8D433"/>
			<stop  offset="1" style="stop-color:#5FB683"/>
		</linearGradient>
		<path style="fill:url(#SVGID_00000106866878106951338270000018065045148911106714_);" d="M-874.36,237.99
			c9.79,0,17.73,7.94,17.73,17.73c0,9.79-7.94,17.73-17.73,17.73h-0.08c-23.22,0-42.4-14.77-49.72-35.49 M-874.36,237.94
			c-9.79,0-17.73-7.94-17.73-17.73c0-9.79,7.08-17.78,16.87-17.78l0.18-0.01c0.39-0.01,0.78-0.01,1.17-0.01
			c27.17,0,42.98,14.85,50.29,35.57c1.96-5.56,3.03-11.53,3.03-17.76c0-29.45-23.87-53.32-53.32-53.32s-53.32,23.87-53.32,53.32
			c0,6.23,1.07,12.2,3.03,17.76"/>
		
			<linearGradient id="SVGID_00000183248970189389855440000016452920306467081090_" gradientUnits="userSpaceOnUse" x1="-2428.2122" y1="23.5116" x2="-2467.2776" y2="124.0404" gradientTransform="matrix(-1 0 0 -1 -3328.47 345.2359)">
			<stop  offset="0" style="stop-color:#5FB683"/>
			<stop  offset="1" style="stop-color:#5B7A97"/>
		</linearGradient>
		<path style="fill:url(#SVGID_00000183248970189389855440000016452920306467081090_);" d="M-874.85,237.89
			c-9.79,0-17.73-7.94-17.73-17.73c0-9.79,7.94-17.73,17.73-17.73h0.08c23.22,0,41.46,9.52,51.2,35.49 M-874.85,237.94
			c9.79,0,17.73,7.94,17.73,17.73c0,9.79-7.08,17.78-16.87,17.78l-0.18,0.01c-0.39,0.01-0.78,0.04-1.17,0.01
			c-27.44-2.02-39.81-15.54-48.81-35.57c-1.96,5.56-3.53,11.53-3.53,17.76c0,29.45,22.89,53.32,52.34,53.32s53.32-23.87,53.32-53.32
			c0-6.23,0.41-12.2-1.55-17.76"/>
		<g>
			<path class="st9" d="M-780.1,271.46v-0.01c0-1.33,0.98-2.51,2.43-2.51c0.82,0,1.32,0.24,1.81,0.64l-0.35,0.42
				c-0.37-0.33-0.79-0.55-1.48-0.55c-1.07,0-1.84,0.91-1.84,1.99v0.01c0,1.16,0.74,2.02,1.92,2.02c0.55,0,1.07-0.21,1.4-0.48v-1.21
				h-1.48v-0.49h2v1.93c-0.45,0.4-1.13,0.74-1.95,0.74C-779.16,273.95-780.1,272.84-780.1,271.46z"/>
			<path class="st9" d="M-774.46,269.02h3.51v0.5h-2.96v1.66h2.65v0.5h-2.65v1.7h2.99v0.5h-3.54V269.02z"/>
			<path class="st9" d="M-770.14,273.16l0.34-0.4c0.5,0.46,0.99,0.69,1.66,0.69c0.65,0,1.08-0.35,1.08-0.82v-0.01
				c0-0.45-0.24-0.71-1.26-0.92c-1.12-0.24-1.63-0.6-1.63-1.4v-0.01c0-0.76,0.67-1.32,1.59-1.32c0.71,0,1.21,0.2,1.7,0.6l-0.32,0.42
				c-0.45-0.37-0.9-0.53-1.4-0.53c-0.63,0-1.03,0.35-1.03,0.78v0.01c0,0.46,0.25,0.71,1.32,0.94c1.08,0.24,1.58,0.63,1.58,1.37v0.01
				c0,0.83-0.69,1.37-1.66,1.37C-768.93,273.94-769.56,273.68-770.14,273.16z"/>
			<path class="st9" d="M-764.21,269.52h-1.63v-0.51h3.81v0.51h-1.63v4.34h-0.55V269.52z"/>
			<path class="st9" d="M-760.95,269.02h0.55v4.85h-0.55V269.02z"/>
			<path class="st9" d="M-759.2,271.46v-0.01c0-1.34,1-2.51,2.48-2.51s2.47,1.16,2.47,2.49v0.01c0,1.34-1,2.51-2.48,2.51
				S-759.2,272.79-759.2,271.46z M-754.82,271.46v-0.01c0-1.1-0.8-2-1.91-2s-1.9,0.89-1.9,1.99v0.01c0,1.1,0.8,2,1.91,2
				S-754.82,272.56-754.82,271.46z M-756.26,267.63l0.55,0.25l-0.8,0.64h-0.44L-756.26,267.63z"/>
			<path class="st9" d="M-753.1,269.02h0.51l3.06,3.89v-3.89h0.53v4.85h-0.44l-3.13-3.98v3.98h-0.53V269.02z"/>
			<path class="st9" d="M-745.87,273.16l0.34-0.4c0.5,0.46,0.99,0.69,1.66,0.69c0.65,0,1.08-0.35,1.08-0.82v-0.01
				c0-0.45-0.24-0.71-1.26-0.92c-1.12-0.24-1.63-0.6-1.63-1.4v-0.01c0-0.76,0.67-1.32,1.59-1.32c0.71,0,1.21,0.2,1.7,0.6l-0.32,0.42
				c-0.45-0.37-0.9-0.53-1.4-0.53c-0.63,0-1.03,0.35-1.03,0.78v0.01c0,0.46,0.25,0.71,1.32,0.94c1.08,0.24,1.58,0.63,1.58,1.37v0.01
				c0,0.83-0.69,1.37-1.66,1.37C-744.66,273.94-745.29,273.68-745.87,273.16z"/>
			<path class="st9" d="M-741.33,271.46v-0.01c0-1.34,1-2.51,2.48-2.51s2.47,1.16,2.47,2.49v0.01c0,1.34-1,2.51-2.48,2.51
				S-741.33,272.79-741.33,271.46z M-736.96,271.46v-0.01c0-1.1-0.8-2-1.91-2s-1.9,0.89-1.9,1.99v0.01c0,1.1,0.8,2,1.91,2
				S-736.96,272.56-736.96,271.46z"/>
			<path class="st9" d="M-735.59,273.16l0.34-0.4c0.5,0.46,0.99,0.69,1.66,0.69c0.65,0,1.08-0.35,1.08-0.82v-0.01
				c0-0.45-0.24-0.71-1.26-0.92c-1.12-0.24-1.63-0.6-1.63-1.4v-0.01c0-0.76,0.67-1.32,1.59-1.32c0.71,0,1.21,0.2,1.7,0.6l-0.32,0.42
				c-0.45-0.37-0.9-0.53-1.4-0.53c-0.63,0-1.03,0.35-1.03,0.78v0.01c0,0.46,0.25,0.71,1.32,0.94c1.08,0.24,1.58,0.63,1.58,1.37v0.01
				c0,0.83-0.69,1.37-1.66,1.37C-734.37,273.94-735,273.68-735.59,273.16z"/>
			<path class="st9" d="M-729.66,269.52h-1.63v-0.51h3.81v0.51h-1.63v4.34h-0.55V269.52z"/>
			<path class="st9" d="M-726.45,269.02h3.51v0.5h-2.96v1.66h2.65v0.5h-2.65v1.7h2.99v0.5h-3.54V269.02z"/>
			<path class="st9" d="M-721.81,269.02h0.51l3.06,3.89v-3.89h0.53v4.85h-0.44l-3.13-3.98v3.98h-0.53V269.02z"/>
			<path class="st9" d="M-716.29,269.02h0.55v4.85h-0.55V269.02z"/>
			<path class="st9" d="M-714.32,269.02h2.06c0.55,0,0.99,0.16,1.27,0.43c0.2,0.21,0.31,0.46,0.31,0.78v0.01
				c0,0.63-0.39,0.96-0.77,1.12c0.58,0.17,1.04,0.51,1.04,1.17v0.01c0,0.83-0.7,1.32-1.76,1.32h-2.15V269.02z M-712.35,271.18
				c0.66,0,1.12-0.3,1.12-0.87v-0.01c0-0.48-0.38-0.79-1.07-0.79h-1.48v1.67H-712.35z M-712.16,273.38c0.73,0,1.19-0.33,1.19-0.87
				v-0.01c0-0.53-0.44-0.83-1.29-0.83h-1.53v1.71H-712.16z"/>
			<path class="st9" d="M-709.32,269.02h0.55v4.34h2.73v0.51h-3.28V269.02z"/>
			<path class="st9" d="M-705.04,269.02h3.51v0.5h-2.96v1.66h2.65v0.5h-2.65v1.7h2.99v0.5h-3.54V269.02z"/>
			<path class="st9" d="M-698.32,269.02h1.68c1.52,0,2.58,1.05,2.58,2.41v0.01c0,1.37-1.05,2.42-2.58,2.42h-1.68V269.02z
				 M-696.64,273.36c1.23,0,2.01-0.83,2.01-1.91v-0.01c0-1.07-0.78-1.92-2.01-1.92h-1.14v3.84H-696.64z"/>
			<path class="st9" d="M-692.9,269.02h3.51v0.5h-2.96v1.66h2.65v0.5h-2.65v1.7h2.99v0.5h-3.54V269.02z"/>
			<path class="st9" d="M-686.19,269.02h1.82c1.09,0,1.81,0.58,1.81,1.54v0.01c0,1.05-0.87,1.59-1.9,1.59h-1.18v1.71h-0.55V269.02z
				 M-684.44,271.66c0.8,0,1.33-0.43,1.33-1.07v-0.01c0-0.69-0.52-1.05-1.3-1.05h-1.23v2.13H-684.44z"/>
			<path class="st9" d="M-681.56,269.02h2.08c0.6,0,1.07,0.18,1.38,0.49c0.24,0.24,0.37,0.58,0.37,0.96v0.01
				c0,0.8-0.55,1.27-1.32,1.41l1.49,1.98h-0.67l-1.41-1.88h-1.38v1.88h-0.55V269.02z M-679.52,271.49c0.73,0,1.25-0.37,1.25-1v-0.01
				c0-0.6-0.46-0.96-1.24-0.96h-1.5v1.97H-679.52z"/>
			<path class="st9" d="M-676.77,271.46v-0.01c0-1.34,1-2.51,2.48-2.51s2.47,1.16,2.47,2.49v0.01c0,1.34-1,2.51-2.48,2.51
				S-676.77,272.79-676.77,271.46z M-672.39,271.46v-0.01c0-1.1-0.8-2-1.91-2s-1.9,0.89-1.9,1.99v0.01c0,1.1,0.8,2,1.91,2
				S-672.39,272.56-672.39,271.46z"/>
			<path class="st9" d="M-671.36,269.02h0.61l1.72,4.18l1.73-4.18h0.59l-2.09,4.88h-0.48L-671.36,269.02z"/>
			<path class="st9" d="M-665.75,269.02h3.51v0.5h-2.96v1.66h2.65v0.5h-2.65v1.7h2.99v0.5h-3.54V269.02z"/>
			<path class="st9" d="M-661.11,269.02h3.51v0.5h-2.96v1.66h2.65v0.5h-2.65v1.7h2.99v0.5h-3.54V269.02z"/>
			<path class="st9" d="M-656.47,269.02h1.68c1.52,0,2.58,1.05,2.58,2.41v0.01c0,1.37-1.05,2.42-2.58,2.42h-1.68V269.02z
				 M-654.79,273.36c1.23,0,2.01-0.83,2.01-1.91v-0.01c0-1.07-0.78-1.92-2.01-1.92h-1.14v3.84H-654.79z"/>
			<path class="st9" d="M-651.27,271.46v-0.01c0-1.34,1-2.51,2.48-2.51s2.47,1.16,2.47,2.49v0.01c0,1.34-1,2.51-2.48,2.51
				S-651.27,272.79-651.27,271.46z M-646.89,271.46v-0.01c0-1.1-0.8-2-1.91-2s-1.9,0.89-1.9,1.99v0.01c0,1.1,0.8,2,1.91,2
				S-646.89,272.56-646.89,271.46z"/>
			<path class="st9" d="M-645.17,269.02h2.09c0.6,0,1.07,0.18,1.38,0.49c0.24,0.24,0.37,0.58,0.37,0.96v0.01
				c0,0.8-0.55,1.27-1.32,1.41l1.49,1.98h-0.67l-1.41-1.88h-1.38v1.88h-0.55V269.02z M-643.13,271.49c0.73,0,1.25-0.37,1.25-1v-0.01
				c0-0.6-0.46-0.96-1.24-0.96h-1.5v1.97H-643.13z"/>
			<path class="st9" d="M-640.16,269.02h3.51v0.5h-2.96v1.66h2.65v0.5h-2.65v1.7h2.99v0.5h-3.54V269.02z"/>
			<path class="st9" d="M-635.84,273.16l0.34-0.4c0.5,0.46,0.99,0.69,1.66,0.69c0.65,0,1.08-0.35,1.08-0.82v-0.01
				c0-0.45-0.24-0.71-1.26-0.92c-1.12-0.24-1.63-0.6-1.63-1.4v-0.01c0-0.76,0.67-1.32,1.59-1.32c0.71,0,1.21,0.2,1.7,0.6l-0.32,0.42
				c-0.45-0.37-0.9-0.53-1.4-0.53c-0.63,0-1.03,0.35-1.03,0.78v0.01c0,0.46,0.25,0.71,1.32,0.94c1.08,0.24,1.58,0.63,1.58,1.37v0.01
				c0,0.83-0.69,1.37-1.66,1.37C-634.63,273.94-635.26,273.68-635.84,273.16z"/>
		</g>
	</g>
	<g class="st2">
		<g>
			<path d="M-380.53,238.67v-0.1c0-9.73,7.34-17.7,17.85-17.7c6.46,0,10.32,2.15,13.5,5.28l-4.79,5.53
				c-2.64-2.4-5.33-3.86-8.75-3.86c-5.77,0-9.93,4.79-9.93,10.66v0.1c0,5.87,4.06,10.76,9.93,10.76c3.91,0,6.31-1.56,9-4.01
				l4.79,4.84c-3.52,3.77-7.43,6.11-14.04,6.11C-373.05,256.28-380.53,248.5-380.53,238.67z"/>
			<path d="M-345.27,248.16v-0.1c0-5.72,4.35-8.36,10.56-8.36c2.64,0,4.55,0.44,6.41,1.08v-0.44c0-3.08-1.91-4.79-5.62-4.79
				c-2.84,0-4.84,0.54-7.24,1.42l-1.86-5.67c2.88-1.27,5.72-2.1,10.17-2.1c4.06,0,6.99,1.08,8.85,2.93
				c1.96,1.96,2.84,4.84,2.84,8.36v15.21h-7.19v-2.84c-1.81,2-4.3,3.33-7.92,3.33C-341.21,256.18-345.27,253.34-345.27,248.16z
				 M-328.2,246.45v-1.32c-1.27-0.59-2.94-0.98-4.74-0.98c-3.18,0-5.13,1.27-5.13,3.62v0.1c0,2,1.66,3.18,4.06,3.18
				C-330.55,251.04-328.2,249.14-328.2,246.45z"/>
			<path d="M-314.41,219.99h7.43v35.7h-7.43V219.99z"/>
			<path d="M-299.84,219.99h7.82v6.6h-7.82V219.99z M-299.64,229.48h7.43v26.21h-7.43V229.48z"/>
			<path d="M-283.95,235.83h-3.08v-6.11h3.08v-1.66c0-2.89,0.73-4.99,2.1-6.36s3.37-2.05,6.01-2.05c2.35,0,3.91,0.29,5.28,0.73v6.16
				c-1.08-0.39-2.1-0.64-3.38-0.64c-1.71,0-2.69,0.88-2.69,2.84v1.03h6.02v6.06h-5.92v19.85h-7.43V235.83z M-266.39,219.99h7.82v6.6
				h-7.82V219.99z M-266.19,229.48h7.43v26.21h-7.43V229.48z"/>
			<path d="M-252.65,236.96h15.06v7.14h-15.06V236.96z"/>
			<path d="M-231.03,221.46h7.53v14.96l13.89-14.96h9.1l-13.94,14.52l14.57,19.71h-9.05l-10.61-14.57l-3.96,4.11v10.46h-7.53V221.46
				z"/>
		</g>
		
			<linearGradient id="SVGID_00000101806292747976260800000015952335289512846523_" gradientUnits="userSpaceOnUse" x1="-434.0254" y1="148.6471" x2="-470.473" y2="249.0116">
			<stop  offset="0" style="stop-color:#BBBDBF"/>
			<stop  offset="0.2032" style="stop-color:#ABADAF"/>
			<stop  offset="0.6005" style="stop-color:#828385"/>
			<stop  offset="1" style="stop-color:#535355"/>
		</linearGradient>
		<path style="fill:url(#SVGID_00000101806292747976260800000015952335289512846523_);" d="M-460.5,237.97
			c9.79,0,17.73,7.94,17.73,17.73c0,9.79-7.94,17.73-17.73,17.73h-0.08c-23.22,0-42.4-14.77-49.72-35.49 M-460.5,237.92
			c-9.79,0-17.73-7.94-17.73-17.73c0-9.79,7.08-17.78,16.87-17.78l0.18-0.01c0.39-0.01,0.78-0.01,1.17-0.01
			c27.17,0,42.98,14.85,50.29,35.57c1.96-5.56,3.03-11.53,3.03-17.76c0-29.45-23.87-53.32-53.32-53.32
			c-29.45,0-53.32,23.87-53.32,53.32c0,6.23,1.07,12.2,3.03,17.76"/>
		
			<linearGradient id="SVGID_00000127750888839188774810000013121336972823083417_" gradientUnits="userSpaceOnUse" x1="-2891.959" y1="125.8552" x2="-2833.532" y2="35.1998" gradientTransform="matrix(-1 0 0 -1 -3328.47 345.2359)">
			<stop  offset="0" style="stop-color:#BBBDBF"/>
			<stop  offset="0.2032" style="stop-color:#ABADAF"/>
			<stop  offset="0.6005" style="stop-color:#828385"/>
			<stop  offset="1" style="stop-color:#535355"/>
		</linearGradient>
		<path style="fill:url(#SVGID_00000127750888839188774810000013121336972823083417_);" d="M-460.99,237.87
			c-9.79,0-17.73-7.94-17.73-17.73c0-9.79,7.94-17.73,17.73-17.73h0.08c23.22,0,41.46,9.52,51.2,35.49 M-460.99,237.92
			c9.79,0,17.73,7.94,17.73,17.73c0,9.79-7.08,17.78-16.87,17.78l-0.18,0.01c-0.39,0.01-0.78,0.04-1.17,0.01
			c-27.44-2.02-39.81-15.54-48.81-35.57c-1.96,5.56-3.53,11.53-3.53,17.76c0,29.45,22.89,53.32,52.34,53.32s53.32-23.87,53.32-53.32
			c0-6.23,0.41-12.2-1.55-17.76"/>
	</g>
	<g class="st2">
		<g>
			<path class="st12" d="M-589.8,5.4V5.38c0-1.89,1.39-3.56,3.46-3.56c1.16,0,1.88,0.33,2.57,0.92l-0.5,0.59
				c-0.53-0.46-1.12-0.79-2.1-0.79c-1.53,0-2.62,1.29-2.62,2.82v0.02c0,1.64,1.05,2.86,2.73,2.86c0.79,0,1.52-0.31,1.99-0.69V5.84
				h-2.1v-0.7h2.84v2.75c-0.64,0.57-1.6,1.05-2.77,1.05C-588.46,8.94-589.8,7.36-589.8,5.4z"/>
			<path class="st12" d="M-581.78,1.93h4.98v0.71h-4.2v2.35h3.76V5.7H-581v2.41h4.25v0.71h-5.03V1.93z"/>
			<path class="st12" d="M-575.64,7.82l0.48-0.57c0.72,0.65,1.41,0.97,2.36,0.97c0.92,0,1.54-0.49,1.54-1.17V7.03
				c0-0.64-0.34-1-1.79-1.31c-1.58-0.34-2.31-0.86-2.31-1.99V3.71c0-1.08,0.96-1.88,2.26-1.88c1,0,1.72,0.29,2.42,0.85l-0.45,0.6
				c-0.64-0.52-1.28-0.75-1.99-0.75c-0.9,0-1.47,0.49-1.47,1.11v0.02c0,0.65,0.35,1.01,1.87,1.34c1.54,0.33,2.24,0.9,2.24,1.95v0.02
				c0,1.18-0.98,1.95-2.35,1.95C-573.92,8.92-574.81,8.56-575.64,7.82z"/>
			<path class="st12" d="M-567.21,2.65h-2.31V1.93h5.41v0.72h-2.31v6.17h-0.79V2.65z"/>
			<path class="st12" d="M-562.59,1.93h0.78v6.89h-0.78V1.93z"/>
			<path class="st12" d="M-560.1,5.4V5.38c0-1.9,1.43-3.56,3.52-3.56c2.1,0,3.5,1.64,3.5,3.54v0.02c0,1.9-1.43,3.56-3.52,3.56
				S-560.1,7.3-560.1,5.4z M-553.88,5.4V5.38c0-1.56-1.14-2.84-2.72-2.84c-1.57,0-2.7,1.26-2.7,2.82v0.02
				c0,1.56,1.14,2.84,2.72,2.84C-555,8.22-553.88,6.96-553.88,5.4z M-555.91-0.05l0.78,0.35l-1.13,0.92h-0.63L-555.91-0.05z"/>
			<path class="st12" d="M-551.42,1.93h0.73l4.34,5.52V1.93h0.76v6.89h-0.62l-4.45-5.65v5.65h-0.76V1.93z"/>
			<path class="st12" d="M-541.15,7.82l0.48-0.57c0.72,0.65,1.41,0.97,2.36,0.97c0.92,0,1.54-0.49,1.54-1.17V7.03
				c0-0.64-0.34-1-1.79-1.31c-1.58-0.34-2.31-0.86-2.31-1.99V3.71c0-1.08,0.96-1.88,2.26-1.88c1,0,1.72,0.29,2.42,0.85l-0.45,0.6
				c-0.64-0.52-1.28-0.75-1.99-0.75c-0.9,0-1.47,0.49-1.47,1.11v0.02c0,0.65,0.35,1.01,1.87,1.34c1.54,0.33,2.24,0.9,2.24,1.95v0.02
				c0,1.18-0.98,1.95-2.35,1.95C-539.42,8.92-540.32,8.56-541.15,7.82z"/>
			<path class="st12" d="M-534.7,5.4V5.38c0-1.9,1.43-3.56,3.52-3.56c2.1,0,3.5,1.64,3.5,3.54v0.02c0,1.9-1.43,3.56-3.52,3.56
				S-534.7,7.3-534.7,5.4z M-528.48,5.4V5.38c0-1.56-1.14-2.84-2.72-2.84c-1.57,0-2.7,1.26-2.7,2.82v0.02
				c0,1.56,1.14,2.84,2.72,2.84C-529.6,8.22-528.48,6.96-528.48,5.4z"/>
			<path class="st12" d="M-526.53,7.82l0.48-0.57c0.72,0.65,1.41,0.97,2.36,0.97c0.92,0,1.54-0.49,1.54-1.17V7.03
				c0-0.64-0.34-1-1.79-1.31c-1.58-0.34-2.31-0.86-2.31-1.99V3.71c0-1.08,0.96-1.88,2.26-1.88c1,0,1.72,0.29,2.42,0.85l-0.45,0.6
				c-0.64-0.52-1.28-0.75-1.99-0.75c-0.9,0-1.47,0.49-1.47,1.11v0.02c0,0.65,0.35,1.01,1.87,1.34c1.54,0.33,2.24,0.9,2.24,1.95v0.02
				c0,1.18-0.98,1.95-2.35,1.95C-524.81,8.92-525.7,8.56-526.53,7.82z"/>
			<path class="st12" d="M-518.11,2.65h-2.31V1.93h5.41v0.72h-2.31v6.17h-0.79V2.65z"/>
			<path class="st12" d="M-513.55,1.93h4.98v0.71h-4.2v2.35h3.76V5.7h-3.76v2.41h4.25v0.71h-5.03V1.93z"/>
			<path class="st12" d="M-506.95,1.93h0.73l4.34,5.52V1.93h0.76v6.89h-0.62l-4.45-5.65v5.65h-0.76V1.93z"/>
			<path class="st12" d="M-499.11,1.93h0.78v6.89h-0.78V1.93z"/>
			<path class="st12" d="M-496.31,1.93h2.93c0.79,0,1.41,0.23,1.8,0.61c0.29,0.3,0.44,0.66,0.44,1.1v0.02c0,0.9-0.55,1.36-1.09,1.59
				c0.82,0.25,1.48,0.72,1.48,1.66v0.02c0,1.18-0.99,1.88-2.5,1.88h-3.06V1.93z M-493.51,5c0.93,0,1.58-0.42,1.58-1.23V3.75
				c0-0.68-0.54-1.12-1.53-1.12h-2.1V5H-493.51z M-493.23,8.12c1.04,0,1.69-0.46,1.69-1.23V6.87c0-0.75-0.63-1.18-1.83-1.18h-2.17
				v2.43H-493.23z"/>
			<path class="st12" d="M-489.21,1.93h0.78V8.1h3.88v0.72h-4.66V1.93z"/>
			<path class="st12" d="M-483.11,1.93h4.98v0.71h-4.2v2.35h3.76V5.7h-3.76v2.41h4.25v0.71h-5.03V1.93z"/>
			<path class="st12" d="M-473.57,1.93h2.39c2.17,0,3.66,1.49,3.66,3.42v0.02c0,1.94-1.5,3.44-3.66,3.44h-2.39V1.93z M-471.17,8.1
				c1.74,0,2.85-1.18,2.85-2.71V5.38c0-1.53-1.11-2.73-2.85-2.73h-1.61V8.1H-471.17z"/>
			<path class="st12" d="M-465.87,1.93h4.98v0.71h-4.2v2.35h3.76V5.7h-3.76v2.41h4.25v0.71h-5.03V1.93z"/>
			<path class="st12" d="M-456.32,1.93h2.58c1.56,0,2.58,0.83,2.58,2.18v0.02c0,1.49-1.24,2.25-2.71,2.25h-1.67v2.43h-0.78V1.93z
				 M-453.84,5.68c1.14,0,1.89-0.61,1.89-1.52V4.15c0-0.98-0.74-1.5-1.85-1.5h-1.74v3.03H-453.84z"/>
			<path class="st12" d="M-449.75,1.93h2.96c0.85,0,1.53,0.26,1.96,0.69c0.33,0.33,0.53,0.82,0.53,1.36V4
				c0,1.14-0.79,1.81-1.87,2.01l2.12,2.81H-445l-2-2.68h-1.97v2.68h-0.78V1.93z M-446.85,5.45c1.03,0,1.77-0.53,1.77-1.42V4.01
				c0-0.85-0.65-1.36-1.76-1.36h-2.13v2.79H-446.85z"/>
			<path class="st12" d="M-442.93,5.4V5.38c0-1.9,1.43-3.56,3.52-3.56c2.1,0,3.5,1.64,3.5,3.54v0.02c0,1.9-1.43,3.56-3.52,3.56
				S-442.93,7.3-442.93,5.4z M-436.71,5.4V5.38c0-1.56-1.14-2.84-2.72-2.84c-1.57,0-2.7,1.26-2.7,2.82v0.02
				c0,1.56,1.14,2.84,2.72,2.84C-437.84,8.22-436.71,6.96-436.71,5.4z"/>
			<path class="st12" d="M-435.26,1.93h0.87l2.45,5.93l2.46-5.93h0.84l-2.96,6.94h-0.69L-435.26,1.93z"/>
			<path class="st12" d="M-427.28,1.93h4.98v0.71h-4.2v2.35h3.76V5.7h-3.76v2.41h4.25v0.71h-5.03V1.93z"/>
			<path class="st12" d="M-420.69,1.93h4.98v0.71h-4.2v2.35h3.76V5.7h-3.76v2.41h4.25v0.71h-5.03V1.93z"/>
			<path class="st12" d="M-414.09,1.93h2.39c2.17,0,3.66,1.49,3.66,3.42v0.02c0,1.94-1.5,3.44-3.66,3.44h-2.39V1.93z M-411.7,8.1
				c1.74,0,2.85-1.18,2.85-2.71V5.38c0-1.53-1.11-2.73-2.85-2.73h-1.61V8.1H-411.7z"/>
			<path class="st12" d="M-406.7,5.4V5.38c0-1.9,1.43-3.56,3.52-3.56c2.1,0,3.5,1.64,3.5,3.54v0.02c0,1.9-1.43,3.56-3.52,3.56
				S-406.7,7.3-406.7,5.4z M-400.48,5.4V5.38c0-1.56-1.14-2.84-2.72-2.84c-1.57,0-2.7,1.26-2.7,2.82v0.02
				c0,1.56,1.14,2.84,2.72,2.84C-401.6,8.22-400.48,6.96-400.48,5.4z"/>
			<path class="st12" d="M-398.03,1.93h2.96c0.85,0,1.53,0.26,1.96,0.69c0.33,0.33,0.53,0.82,0.53,1.36V4
				c0,1.14-0.79,1.81-1.87,2.01l2.12,2.81h-0.96l-2-2.68h-1.97v2.68h-0.78V1.93z M-395.14,5.45c1.03,0,1.77-0.53,1.77-1.42V4.01
				c0-0.85-0.65-1.36-1.76-1.36h-2.13v2.79H-395.14z"/>
			<path class="st12" d="M-390.91,1.93h4.98v0.71h-4.2v2.35h3.76V5.7h-3.76v2.41h4.25v0.71h-5.03V1.93z"/>
			<path class="st12" d="M-384.77,7.82l0.48-0.57c0.72,0.65,1.41,0.97,2.36,0.97c0.92,0,1.54-0.49,1.54-1.17V7.03
				c0-0.64-0.34-1-1.79-1.31c-1.58-0.34-2.31-0.86-2.31-1.99V3.71c0-1.08,0.96-1.88,2.26-1.88c1,0,1.72,0.29,2.42,0.85l-0.45,0.6
				c-0.64-0.52-1.28-0.75-1.99-0.75c-0.9,0-1.47,0.49-1.47,1.11v0.02c0,0.65,0.35,1.01,1.87,1.34c1.54,0.33,2.24,0.9,2.24,1.95v0.02
				c0,1.18-0.98,1.95-2.35,1.95C-383.05,8.92-383.94,8.56-384.77,7.82z"/>
		</g>
	</g>
</g>
<g id="Layer_4">
	<g>
		<g>
			<path class="st6" d="M312.71,177.42v-0.22c0-21.89,16.5-39.82,40.15-39.82c14.52,0,23.21,4.84,30.36,11.88l-10.78,12.43
				c-5.94-5.39-11.99-8.69-19.69-8.69c-12.98,0-22.33,10.78-22.33,23.98v0.22c0,13.2,9.13,24.2,22.33,24.2
				c8.8,0,14.19-3.52,20.24-9.02l10.78,10.89c-7.92,8.47-16.72,13.75-31.57,13.75C329.54,217.02,312.71,199.53,312.71,177.42z"/>
			<path class="st6" d="M392.01,198.76v-0.22c0-12.87,9.79-18.81,23.76-18.81c5.94,0,10.23,0.99,14.41,2.42v-0.99
				c0-6.93-4.29-10.78-12.65-10.78c-6.38,0-10.89,1.21-16.28,3.19l-4.18-12.76c6.49-2.86,12.87-4.73,22.88-4.73
				c9.13,0,15.73,2.42,19.91,6.6c4.4,4.4,6.38,10.89,6.38,18.81v34.21h-16.17v-6.38c-4.07,4.51-9.68,7.48-17.82,7.48
				C401.14,216.8,392.01,210.42,392.01,198.76z M430.41,194.91v-2.97c-2.86-1.32-6.6-2.2-10.67-2.2c-7.15,0-11.55,2.86-11.55,8.14
				v0.22c0,4.51,3.74,7.15,9.13,7.15C425.12,205.25,430.41,200.96,430.41,194.91z"/>
			<path class="st6" d="M461.42,135.4h16.72v80.3h-16.72V135.4z"/>
			<path class="st6" d="M494.2,135.4h17.6v14.85h-17.6V135.4z M494.64,156.74h16.72v58.96h-16.72V156.74z"/>
			<path class="st6" d="M529.95,171.04h-6.93v-13.75h6.93v-3.74c0-6.49,1.65-11.22,4.73-14.3s7.59-4.62,13.53-4.62
				c5.28,0,8.8,0.66,11.88,1.65v13.86c-2.42-0.88-4.73-1.43-7.59-1.43c-3.85,0-6.05,1.98-6.05,6.38v2.31h13.53v13.64h-13.31v44.66
				h-16.72V171.04z M569.44,135.4h17.6v14.85h-17.6V135.4z M569.88,156.74h16.72v58.96h-16.72V156.74z"/>
			<path class="st6" d="M600.35,173.57h33.88v16.06h-33.88V173.57z"/>
			<path class="st6" d="M648.97,138.7h16.94v33.66l31.24-33.66h20.46l-31.35,32.67l32.78,44.33h-20.35l-23.87-32.78l-8.91,9.24
				v23.54h-16.94V138.7z"/>
		</g>
		
			<linearGradient id="SVGID_00000163762092041990095080000005010740981708966295_" gradientUnits="userSpaceOnUse" x1="212.7059" y1="36.8912" x2="57.4006" y2="220.0885">
			<stop  offset="0" style="stop-color:#B8D433"/>
			<stop  offset="1" style="stop-color:#5FB683"/>
		</linearGradient>
		<path style="fill:url(#SVGID_00000163762092041990095080000005010740981708966295_);" d="M132.84,175.84
			c22.03,0,39.88,17.86,39.88,39.88s-17.86,39.88-39.88,39.88h-0.18c-52.24,0-95.37-33.22-111.83-79.83 M132.84,175.73
			c-22.03,0-39.88-17.86-39.88-39.88s15.93-40,37.95-40l0.4-0.03c0.88-0.02,1.76-0.03,2.64-0.03c61.11,0,96.67,33.4,113.12,80
			c4.41-12.5,6.82-25.94,6.82-39.94c0-66.24-53.7-119.94-119.94-119.94S14.01,69.6,14.01,135.84c0,14.01,2.41,27.45,6.82,39.94"/>
		
			<linearGradient id="SVGID_00000102504850881489129360000011808068873608326325_" gradientUnits="userSpaceOnUse" x1="-3403.0613" y1="-18.9377" x2="-3490.9302" y2="207.1805" gradientTransform="matrix(-1 0 0 -1 -3328.47 345.2359)">
			<stop  offset="0" style="stop-color:#5FB683"/>
			<stop  offset="1" style="stop-color:#5B7A97"/>
		</linearGradient>
		<path style="fill:url(#SVGID_00000102504850881489129360000011808068873608326325_);" d="M131.73,175.61
			c-22.03,0-39.88-17.86-39.88-39.88s17.86-39.88,39.88-39.88h0.18c52.24,0,93.25,21.41,115.15,79.83 M131.73,175.73
			c22.03,0,39.88,17.86,39.88,39.88s-15.93,40-37.95,40l-0.4,0.03c-0.88,0.02-1.76,0.09-2.64,0.03
			c-61.73-4.54-89.53-34.96-109.79-80c-4.41,12.5-7.93,25.94-7.93,39.94c0,66.24,51.48,119.94,117.72,119.94
			s119.94-53.7,119.94-119.94c0-14.01,0.92-27.45-3.49-39.94"/>
	</g>
	<g>
		<path class="st9" d="M313,238.92v-0.03c0-3.08,2.31-5.64,5.51-5.64c1.98,0,3.16,0.7,4.25,1.73l-0.84,0.9
			c-0.92-0.87-1.95-1.5-3.43-1.5c-2.41,0-4.22,1.96-4.22,4.47v0.03c0,2.52,1.82,4.5,4.22,4.5c1.5,0,2.48-0.58,3.52-1.57l0.81,0.79
			c-1.14,1.15-2.38,1.92-4.36,1.92C315.32,244.53,313,242.05,313,238.92z"/>
		<path class="st9" d="M329.02,233.36h1.15l4.97,10.98h-1.32l-1.28-2.88h-5.94l-1.29,2.88h-1.26L329.02,233.36z M332.05,240.35
			l-2.48-5.56l-2.49,5.56H332.05z"/>
		<path class="st9" d="M337.29,233.44h1.23v9.77h6.14v1.14h-7.37V233.44z"/>
		<path class="st9" d="M347.04,233.44h1.23v10.91h-1.23V233.44z"/>
		<path class="st9" d="M351.46,233.44h7.84v1.14h-6.61v3.9h5.9v1.12h-5.9v4.75h-1.23V233.44z"/>
		<path class="st9" d="M361.79,233.44h1.23v10.91h-1.23V233.44z"/>
		<path class="st9" d="M365.73,238.92v-0.03c0-3.08,2.31-5.64,5.51-5.64c1.98,0,3.16,0.7,4.25,1.73l-0.84,0.9
			c-0.92-0.87-1.95-1.5-3.43-1.5c-2.41,0-4.22,1.96-4.22,4.47v0.03c0,2.52,1.82,4.5,4.22,4.5c1.5,0,2.48-0.58,3.52-1.57l0.81,0.79
			c-1.14,1.15-2.38,1.92-4.36,1.92C368.05,244.53,365.73,242.05,365.73,238.92z"/>
		<path class="st9" d="M381.75,233.36h1.15l4.97,10.98h-1.32l-1.28-2.88h-5.94l-1.29,2.88h-1.26L381.75,233.36z M384.78,240.35
			l-2.48-5.56l-2.49,5.56H384.78z"/>
		<path class="st9" d="M388.9,238.92v-0.03c0-3.08,2.31-5.64,5.51-5.64c1.98,0,3.16,0.7,4.25,1.73l-0.84,0.9
			c-0.92-0.87-1.95-1.5-3.43-1.5c-2.41,0-4.22,1.96-4.22,4.47v0.03c0,2.52,1.82,4.5,4.22,4.5c1.5,0,2.48-0.58,3.52-1.57l0.81,0.79
			c-1.14,1.15-2.38,1.92-4.36,1.92C391.22,244.53,388.9,242.05,388.9,238.92z"/>
		<path class="st9" d="M400.99,233.44h1.23v10.91h-1.23V233.44z"/>
		<path class="st9" d="M404.93,238.92v-0.03c0-3.01,2.26-5.64,5.58-5.64s5.55,2.6,5.55,5.61v0.03c0,3.01-2.26,5.64-5.58,5.64
			S404.93,241.93,404.93,238.92z M414.77,238.92v-0.03c0-2.48-1.81-4.5-4.3-4.5c-2.49,0-4.27,1.99-4.27,4.47v0.03
			c0,2.48,1.81,4.5,4.3,4.5C413,243.39,414.77,241.4,414.77,238.92z M411.55,230.31l1.23,0.56l-1.79,1.45h-1L411.55,230.31z"/>
		<path class="st9" d="M418.65,233.44h1.15l6.87,8.74v-8.74h1.2v10.91h-0.98l-7.04-8.94v8.94h-1.2V233.44z"/>
		<path class="st9" d="M439.04,240.03l-4.53-6.59h1.5l3.68,5.45l3.71-5.45h1.43l-4.53,6.57v4.33h-1.25V240.03z"/>
		<path class="st9" d="M450.97,238.92v-0.03c0-3.08,2.31-5.64,5.51-5.64c1.98,0,3.16,0.7,4.25,1.73l-0.84,0.9
			c-0.92-0.87-1.95-1.5-3.43-1.5c-2.41,0-4.22,1.96-4.22,4.47v0.03c0,2.52,1.82,4.5,4.22,4.5c1.5,0,2.48-0.58,3.52-1.57l0.81,0.79
			c-1.14,1.15-2.38,1.92-4.36,1.92C453.3,244.53,450.97,242.05,450.97,238.92z"/>
		<path class="st9" d="M466.99,233.36h1.15l4.97,10.98h-1.32l-1.28-2.88h-5.94l-1.29,2.88h-1.26L466.99,233.36z M470.03,240.35
			l-2.48-5.56l-2.49,5.56H470.03z"/>
		<path class="st9" d="M475.26,233.44h4.08c2.46,0,4.08,1.31,4.08,3.46v0.03c0,2.35-1.96,3.57-4.28,3.57h-2.65v3.85h-1.23V233.44z
			 M479.19,239.37c1.81,0,2.99-0.97,2.99-2.4v-0.03c0-1.56-1.17-2.37-2.93-2.37h-2.76v4.8H479.19z"/>
		<path class="st9" d="M488.61,233.36h1.15l4.97,10.98h-1.32l-1.28-2.88h-5.94l-1.29,2.88h-1.26L488.61,233.36z M491.65,240.35
			l-2.48-5.56l-2.49,5.56H491.65z"/>
		<path class="st9" d="M495.76,238.92v-0.03c0-3.08,2.31-5.64,5.51-5.64c1.98,0,3.16,0.7,4.25,1.73l-0.84,0.9
			c-0.92-0.87-1.95-1.5-3.43-1.5c-2.41,0-4.22,1.96-4.22,4.47v0.03c0,2.52,1.82,4.5,4.22,4.5c1.5,0,2.48-0.58,3.52-1.57l0.81,0.79
			c-1.14,1.15-2.38,1.92-4.36,1.92C498.08,244.53,495.76,242.05,495.76,238.92z"/>
		<path class="st9" d="M507.85,233.44h1.23v10.91h-1.23V233.44z"/>
		<path class="st9" d="M515.16,234.57h-3.66v-1.14h8.57v1.14h-3.66v9.77h-1.25V234.57z"/>
		<path class="st9" d="M525,233.36h1.15l4.97,10.98h-1.32l-1.28-2.88h-5.94l-1.29,2.88h-1.26L525,233.36z M528.04,240.35l-2.48-5.56
			l-2.49,5.56H528.04z"/>
		<path class="st9" d="M532.15,238.92v-0.03c0-3.08,2.31-5.64,5.51-5.64c1.98,0,3.16,0.7,4.25,1.73l-0.84,0.9
			c-0.92-0.87-1.95-1.5-3.43-1.5c-2.41,0-4.22,1.96-4.22,4.47v0.03c0,2.52,1.82,4.5,4.22,4.5c1.5,0,2.48-0.58,3.52-1.57l0.81,0.79
			c-1.14,1.15-2.38,1.92-4.36,1.92C534.47,244.53,532.15,242.05,532.15,238.92z"/>
		<path class="st9" d="M544.24,233.44h1.23v10.91h-1.23V233.44z"/>
		<path class="st9" d="M548.18,238.92v-0.03c0-3.01,2.26-5.64,5.58-5.64s5.55,2.6,5.55,5.61v0.03c0,3.01-2.26,5.64-5.58,5.64
			S548.18,241.93,548.18,238.92z M558.03,238.92v-0.03c0-2.48-1.81-4.5-4.3-4.5c-2.49,0-4.27,1.99-4.27,4.47v0.03
			c0,2.48,1.81,4.5,4.3,4.5C556.25,243.39,558.03,241.4,558.03,238.92z M554.8,230.31l1.23,0.56l-1.79,1.45h-1L554.8,230.31z"/>
		<path class="st9" d="M561.9,233.44h1.15l6.87,8.74v-8.74h1.2v10.91h-0.98l-7.04-8.94v8.94h-1.2V233.44z"/>
		<path class="st9" d="M578.88,233.44h3.79c3.43,0,5.8,2.35,5.8,5.42v0.03c0,3.07-2.37,5.45-5.8,5.45h-3.79V233.44z M582.67,243.21
			c2.76,0,4.52-1.87,4.52-4.28v-0.03c0-2.41-1.76-4.32-4.52-4.32h-2.55v8.63H582.67z"/>
		<path class="st9" d="M591.07,233.44h7.88v1.12h-6.65v3.72h5.95v1.12h-5.95v3.82h6.73v1.12h-7.96V233.44z"/>
		<path class="st9" d="M606.18,233.44h4.08c2.46,0,4.08,1.31,4.08,3.46v0.03c0,2.35-1.96,3.57-4.28,3.57h-2.65v3.85h-1.23V233.44z
			 M610.1,239.37c1.81,0,2.99-0.97,2.99-2.4v-0.03c0-1.56-1.17-2.37-2.93-2.37h-2.76v4.8H610.1z"/>
		<path class="st9" d="M616.58,233.44h4.69c1.34,0,2.42,0.41,3.1,1.09c0.53,0.53,0.84,1.29,0.84,2.15v0.03
			c0,1.81-1.25,2.87-2.96,3.18l3.35,4.46h-1.51l-3.16-4.24h-3.12v4.24h-1.23V233.44z M621.16,239c1.64,0,2.8-0.84,2.8-2.24v-0.03
			c0-1.34-1.03-2.15-2.79-2.15h-3.37V239H621.16z"/>
		<path class="st9" d="M627.36,238.92v-0.03c0-3.01,2.26-5.64,5.58-5.64s5.55,2.6,5.55,5.61v0.03c0,3.01-2.26,5.64-5.58,5.64
			S627.36,241.93,627.36,238.92z M637.21,238.92v-0.03c0-2.48-1.81-4.5-4.3-4.5c-2.49,0-4.27,1.99-4.27,4.47v0.03
			c0,2.48,1.81,4.5,4.3,4.5C635.43,243.39,637.21,241.4,637.21,238.92z"/>
		<path class="st9" d="M639.51,233.44h1.37l3.88,9.39l3.9-9.39h1.32l-4.69,10.98h-1.09L639.51,233.44z"/>
		<path class="st9" d="M652.13,233.44h7.88v1.12h-6.65v3.72h5.95v1.12h-5.95v3.82h6.73v1.12h-7.96V233.44z"/>
		<path class="st9" d="M662.57,233.44h7.88v1.12h-6.65v3.72h5.95v1.12h-5.95v3.82h6.73v1.12h-7.96V233.44z"/>
		<path class="st9" d="M673.01,233.44h3.79c3.43,0,5.8,2.35,5.8,5.42v0.03c0,3.07-2.37,5.45-5.8,5.45h-3.79V233.44z M676.79,243.21
			c2.76,0,4.52-1.87,4.52-4.28v-0.03c0-2.41-1.76-4.32-4.52-4.32h-2.55v8.63H676.79z"/>
		<path class="st9" d="M684.71,238.92v-0.03c0-3.01,2.26-5.64,5.58-5.64s5.55,2.6,5.55,5.61v0.03c0,3.01-2.26,5.64-5.58,5.64
			S684.71,241.93,684.71,238.92z M694.55,238.92v-0.03c0-2.48-1.81-4.5-4.3-4.5c-2.49,0-4.27,1.99-4.27,4.47v0.03
			c0,2.48,1.81,4.5,4.3,4.5C692.78,243.39,694.55,241.4,694.55,238.92z"/>
		<path class="st9" d="M698.43,233.44h4.69c1.34,0,2.42,0.41,3.1,1.09c0.53,0.53,0.84,1.29,0.84,2.15v0.03
			c0,1.81-1.25,2.87-2.96,3.18l3.35,4.46h-1.51l-3.16-4.24h-3.12v4.24h-1.23V233.44z M703.01,239c1.64,0,2.8-0.84,2.8-2.24v-0.03
			c0-1.34-1.03-2.15-2.79-2.15h-3.37V239H703.01z"/>
		<path class="st9" d="M709.69,233.44h7.88v1.12h-6.65v3.72h5.95v1.12h-5.95v3.82h6.73v1.12h-7.96V233.44z"/>
		<path class="st9" d="M719.41,242.75l0.76-0.9c1.14,1.03,2.23,1.54,3.74,1.54c1.46,0,2.43-0.78,2.43-1.85v-0.03
			c0-1.01-0.55-1.59-2.84-2.07c-2.51-0.55-3.66-1.36-3.66-3.15v-0.03c0-1.71,1.51-2.98,3.58-2.98c1.59,0,2.73,0.45,3.83,1.34
			l-0.72,0.95c-1.01-0.83-2.03-1.18-3.15-1.18c-1.42,0-2.32,0.78-2.32,1.76v0.03c0,1.03,0.56,1.6,2.96,2.12
			c2.43,0.53,3.55,1.42,3.55,3.08v0.03c0,1.87-1.56,3.08-3.72,3.08C722.14,244.5,720.72,243.92,719.41,242.75z"/>
	</g>
	<g class="st0">
		<g class="st2">
			<path class="st6" d="M980.55,360.63v-0.22c0-21.89,16.5-39.82,40.15-39.82c14.52,0,23.21,4.84,30.36,11.88l-10.78,12.43
				c-5.94-5.39-11.99-8.69-19.69-8.69c-12.98,0-22.33,10.78-22.33,23.98v0.22c0,13.2,9.13,24.2,22.33,24.2
				c8.8,0,14.19-3.52,20.24-9.02l10.78,10.89c-7.92,8.47-16.72,13.75-31.57,13.75C997.38,400.23,980.55,382.74,980.55,360.63z"/>
			<path class="st6" d="M1059.86,381.97v-0.22c0-12.87,9.79-18.81,23.76-18.81c5.94,0,10.23,0.99,14.41,2.42v-0.99
				c0-6.93-4.29-10.78-12.65-10.78c-6.38,0-10.89,1.21-16.28,3.19l-4.18-12.76c6.49-2.86,12.87-4.73,22.88-4.73
				c9.13,0,15.73,2.42,19.91,6.6c4.4,4.4,6.38,10.89,6.38,18.81v34.21h-16.17v-6.38c-4.07,4.51-9.68,7.48-17.82,7.48
				C1068.99,400.01,1059.86,393.63,1059.86,381.97z M1098.25,378.12v-2.97c-2.86-1.32-6.6-2.2-10.67-2.2
				c-7.15,0-11.55,2.86-11.55,8.14v0.22c0,4.51,3.74,7.15,9.13,7.15C1092.97,388.46,1098.25,384.17,1098.25,378.12z"/>
			<path class="st6" d="M1129.27,318.61h16.72v80.3h-16.72V318.61z"/>
			<path class="st6" d="M1162.04,318.61h17.6v14.85h-17.6V318.61z M1162.49,339.95h16.72v58.96h-16.72V339.95z"/>
			<path class="st6" d="M1197.79,354.25h-6.93V340.5h6.93v-3.74c0-6.49,1.65-11.22,4.73-14.3s7.59-4.62,13.53-4.62
				c5.28,0,8.8,0.66,11.88,1.65v13.86c-2.42-0.88-4.73-1.43-7.59-1.43c-3.85,0-6.05,1.98-6.05,6.38v2.31h13.53v13.64h-13.31v44.66
				h-16.72V354.25z M1237.28,318.61h17.6v14.85h-17.6V318.61z M1237.72,339.95h16.72v58.96h-16.72V339.95z"/>
			<path class="st6" d="M1268.19,356.78h33.88v16.06h-33.88V356.78z"/>
			<path class="st6" d="M1316.81,321.91h16.94v33.66l31.24-33.66h20.46l-31.35,32.67l32.78,44.33h-20.35l-23.87-32.78l-8.91,9.24
				v23.54h-16.94V321.91z"/>
		</g>
		
			<linearGradient id="SVGID_00000124163300714073987040000006001821343701765539_" gradientUnits="userSpaceOnUse" x1="1259.1606" y1="-26.3481" x2="1103.8553" y2="156.8492">
			<stop  offset="0" style="stop-color:#B8D433"/>
			<stop  offset="1" style="stop-color:#5FB683"/>
		</linearGradient>
		<path style="display:inline;fill:url(#SVGID_00000124163300714073987040000006001821343701765539_);" d="M1179.3,112.6
			c22.03,0,39.88,17.86,39.88,39.88s-17.86,39.88-39.88,39.88h-0.18c-52.24,0-95.37-33.22-111.83-79.83 M1179.3,112.49
			c-22.03,0-39.88-17.86-39.88-39.88s15.93-40,37.95-40l0.4-0.03c0.88-0.02,1.76-0.03,2.64-0.03c61.11,0,96.67,33.4,113.12,80
			c4.41-12.5,6.82-25.94,6.82-39.94c0-66.24-53.7-119.94-119.94-119.94c-66.24,0-119.94,53.7-119.94,119.94
			c0,14.01,2.41,27.45,6.82,39.94"/>
		
			<linearGradient id="SVGID_00000047053206468090081600000010367005415743591596_" gradientUnits="userSpaceOnUse" x1="-4449.5161" y1="44.3016" x2="-4537.3848" y2="270.4197" gradientTransform="matrix(-1 0 0 -1 -3328.47 345.2359)">
			<stop  offset="0" style="stop-color:#5FB683"/>
			<stop  offset="1" style="stop-color:#5B7A97"/>
		</linearGradient>
		<path style="display:inline;fill:url(#SVGID_00000047053206468090081600000010367005415743591596_);" d="M1178.19,112.37
			c-22.03,0-39.88-17.86-39.88-39.88s17.86-39.88,39.88-39.88h0.18c52.24,0,93.25,21.41,115.15,79.83 M1178.19,112.49
			c22.03,0,39.88,17.86,39.88,39.88s-15.93,40-37.95,40l-0.4,0.03c-0.88,0.02-1.76,0.09-2.64,0.03
			c-61.73-4.54-89.53-34.96-109.79-80c-4.41,12.5-7.93,25.94-7.93,39.94c0,66.24,51.48,119.94,117.72,119.94
			s119.94-53.7,119.94-119.94c0-14.01,0.92-27.45-3.49-39.94"/>
	</g>
	<g>
	</g>
	<g>
	</g>
	<g>
	</g>
	<g>
	</g>
	<g>
	</g>
	<g>
	</g>
</g>
</svg>
