<?xml version="1.0" encoding="utf-8"?>
<!-- Generator: Adobe Illustrator 25.4.1, SVG Export Plug-In . SVG Version: 6.00 Build 0)  -->
<svg version="1.1" id="Capa_1" xmlns="http://www.w3.org/2000/svg" xmlns:xlink="http://www.w3.org/1999/xlink" x="0px" y="0px"
	 viewBox="0 0 744 347.7" style="enable-background:new 0 0 744 347.7;" xml:space="preserve">
<style type="text/css">
	.st0{display:none;}
	.st1{display:inline;fill:url(#SVGID_1_);}
	.st2{display:inline;}
	.st3{fill:#FFFFFF;}
	.st4{fill:url(#SVGID_00000106140958511215456160000012014675867155105444_);}
	.st5{fill:url(#SVGID_00000043420096255035743340000003450361752576460948_);}
	.st6{fill:#5FB683;}
	.st7{fill:url(#SVGID_00000011021185189244081420000003610551955840622248_);}
	.st8{fill:url(#SVGID_00000176744653061268384120000008005956028831590836_);}
	.st9{fill:#5B7A97;}
	.st10{fill:url(#SVGID_00000106148202638508943110000008424817177014153878_);}
	.st11{fill:url(#SVGID_00000041276254336705547440000013079884640534337977_);}
	.st12{fill:#B8D433;}
	.st13{fill:url(#SVGID_00000170268987096783076270000002649711771064687797_);}
	.st14{fill:url(#SVGID_00000029743324490632914840000014930378877807497893_);}
	.st15{fill:url(#SVGID_00000123412533096605910900000015351020701589358217_);}
	.st16{fill:url(#SVGID_00000183939058504074964760000000671615642743004601_);}
</style>
<g id="Layer_1" class="st0">
</g>
<g id="Layer_2" class="st0">
</g>
<g id="Layer_3" class="st0">
	
		<linearGradient id="SVGID_1_" gradientUnits="userSpaceOnUse" x1="-245.2061" y1="784.343" x2="-744.3047" y2="179.6551" gradientTransform="matrix(1 0 0 -1 0 350)">
		<stop  offset="0" style="stop-color:#5FB683"/>
		<stop  offset="1" style="stop-color:#5FB683"/>
	</linearGradient>
	<rect x="-984.5" y="-210.8" class="st1" width="841.9" height="324.4"/>
	<g class="st2">
		<path class="st3" d="M-612.7-39.2v-0.1c0-14.1,10.6-25.7,25.9-25.7c9.4,0,15,3.1,19.6,7.7l-7,8c-3.8-3.5-7.7-5.6-12.7-5.6
			c-8.4,0-14.4,7-14.4,15.5v0.1c0,8.5,5.9,15.6,14.4,15.6c5.7,0,9.2-2.3,13-5.8l7,7c-5.1,5.5-10.8,8.9-20.4,8.9
			C-601.8-13.7-612.7-25-612.7-39.2z"/>
		<path class="st3" d="M-561.6-25.5v-0.1c0-8.3,6.3-12.1,15.3-12.1c3.8,0,6.6,0.6,9.3,1.6v-0.6c0-4.5-2.8-7-8.2-7
			c-4.1,0-7,0.8-10.5,2.1l-2.7-8.2c4.2-1.8,8.3-3,14.8-3c5.9,0,10.1,1.6,12.8,4.3c2.8,2.8,4.1,7,4.1,12.1v22.1H-537v-4.1
			c-2.6,2.9-6.2,4.8-11.5,4.8C-555.7-13.8-561.6-17.9-561.6-25.5z M-536.8-27.9v-1.9c-1.8-0.9-4.3-1.4-6.9-1.4
			c-4.6,0-7.5,1.8-7.5,5.2v0.1c0,2.9,2.4,4.6,5.9,4.6C-540.2-21.3-536.8-24-536.8-27.9z"/>
		<path class="st3" d="M-516.8-66.3h10.8v51.8h-10.8V-66.3z"/>
		<path class="st3" d="M-495.7-66.3h11.4v9.6h-11.4V-66.3z M-495.4-52.5h10.8v38h-10.8V-52.5z"/>
		<path class="st3" d="M-472.6-43.3h-4.5v-8.9h4.5v-2.4c0-4.2,1.1-7.2,3-9.2c2-2,4.9-3,8.7-3c3.4,0,5.7,0.4,7.7,1.1v8.9
			c-1.6-0.6-3-0.9-4.9-0.9c-2.5,0-3.9,1.3-3.9,4.1v1.5h8.7v8.8h-8.6v28.8h-10.8V-43.3z M-447.2-66.3h11.4v9.6h-11.4V-66.3z
			 M-446.9-52.5h10.8v38h-10.8V-52.5z"/>
		<path class="st3" d="M-427.2-41.7h21.8v10.4h-21.8V-41.7z"/>
		<path class="st3" d="M-395.9-64.2h10.9v21.7l20.1-21.7h13.2l-20.2,21.1l21.1,28.6h-13.1l-15.4-21.1l-5.7,6v15.2h-10.9L-395.9-64.2
			L-395.9-64.2z"/>
	</g>
	<g class="st2">
		
			<linearGradient id="SVGID_00000178171720826194446670000005867404427807741606_" gradientUnits="userSpaceOnUse" x1="-664.239" y1="478.3153" x2="-784.0672" y2="380.3347" gradientTransform="matrix(1 0 0 -1 0 350)">
			<stop  offset="0" style="stop-color:#FFFFFF"/>
			<stop  offset="0.1874" style="stop-color:#F9F9F9"/>
			<stop  offset="0.4434" style="stop-color:#E7E8E8"/>
			<stop  offset="0.7374" style="stop-color:#CBCCCD"/>
			<stop  offset="1" style="stop-color:#ABADAF"/>
		</linearGradient>
		<path style="fill:url(#SVGID_00000178171720826194446670000005867404427807741606_);" d="M-729.3-42.6c14.2,0,25.7,11.5,25.7,25.7
			s-11.5,25.7-25.7,25.7h-0.1c-33.7,0-61.5-21.4-72.1-51.5 M-729.3-42.7c-14.2,0-25.7-11.5-25.7-25.7s10.3-25.8,24.5-25.8l0.3,0
			c0.6,0,1.1,0,1.7,0c39.4,0,62.3,21.5,72.9,51.6c2.8-8.1,4.4-16.7,4.4-25.8c0-42.7-34.6-77.3-77.3-77.3S-806-111.1-806-68.4
			c0,9,1.5,17.7,4.4,25.8"/>
		
			<linearGradient id="SVGID_00000082342324201412773660000004944291949051699612_" gradientUnits="userSpaceOnUse" x1="-694.4858" y1="431.6324" x2="-763.5833" y2="302.9219" gradientTransform="matrix(1 0 0 -1 0 350)">
			<stop  offset="0" style="stop-color:#FFFFFF"/>
			<stop  offset="0.1874" style="stop-color:#F9F9F9"/>
			<stop  offset="0.4434" style="stop-color:#E7E8E8"/>
			<stop  offset="0.7374" style="stop-color:#CBCCCD"/>
			<stop  offset="1" style="stop-color:#ABADAF"/>
		</linearGradient>
		<path style="fill:url(#SVGID_00000082342324201412773660000004944291949051699612_);" d="M-730.1-42.8
			c-14.2,0-25.7-11.5-25.7-25.7s11.6-26.1,25.8-26.1h0.1c33.7,0,60.1,14.1,74.2,51.8 M-730.1-42.7c14.2,0,25.7,11.5,25.7,25.7
			s-10.3,25.8-24.5,25.8l-0.3,0c-0.6,0-1.1,0.1-1.7,0c-39.8-2.9-57.7-22.5-70.8-51.6c-2.8,8.1-5.1,16.7-5.1,25.8
			c0,42.7,33.2,77.3,75.9,77.3s77.3-34.6,77.3-77.3c0-9,0.6-17.7-2.2-25.8"/>
	</g>
	<g class="st2">
		<g>
			<path class="st6" d="M-794.4,238.6v-0.1c0-9.7,7.3-17.7,17.8-17.7c6.5,0,10.3,2.1,13.5,5.3l-4.8,5.5c-2.6-2.4-5.3-3.9-8.8-3.9
				c-5.8,0-9.9,4.8-9.9,10.7v0.1c0,5.9,4.1,10.8,9.9,10.8c3.9,0,6.3-1.6,9-4l4.8,4.8c-3.5,3.8-7.4,6.1-14,6.1
				C-786.9,256.2-794.4,248.5-794.4,238.6z"/>
			<path class="st6" d="M-759.1,248.1V248c0-5.7,4.3-8.4,10.6-8.4c2.6,0,4.5,0.4,6.4,1.1v-0.4c0-3.1-1.9-4.8-5.6-4.8
				c-2.8,0-4.8,0.5-7.2,1.4l-1.9-5.7c2.9-1.3,5.7-2.1,10.2-2.1c4.1,0,7,1.1,8.8,2.9c2,2,2.8,4.8,2.8,8.4v15.2h-7.2v-2.8
				c-1.8,2-4.3,3.3-7.9,3.3C-755.1,256.1-759.1,253.3-759.1,248.1z M-742.1,246.4v-1.3c-1.3-0.6-2.9-1-4.7-1c-3.2,0-5.1,1.3-5.1,3.6
				v0.1c0,2,1.7,3.2,4.1,3.2C-744.4,251-742.1,249.1-742.1,246.4z"/>
			<path class="st6" d="M-728.3,219.9h7.4v35.7h-7.4V219.9z"/>
			<path class="st6" d="M-713.7,219.9h7.8v6.6h-7.8V219.9z M-713.5,229.4h7.4v26.2h-7.4V229.4z"/>
			<path class="st6" d="M-697.8,235.8h-3.1v-6.1h3.1V228c0-2.9,0.7-5,2.1-6.4s3.4-2.1,6-2.1c2.3,0,3.9,0.3,5.3,0.7v6.2
				c-1.1-0.4-2.1-0.6-3.4-0.6c-1.7,0-2.7,0.9-2.7,2.8v1h6v6.1h-5.9v19.9h-7.4L-697.8,235.8L-697.8,235.8z M-680.2,219.9h7.8v6.6
				h-7.8V219.9z M-680,229.4h7.4v26.2h-7.4V229.4z"/>
			<path class="st6" d="M-666.5,236.9h15.1v7.1h-15.1V236.9z"/>
			<path class="st6" d="M-644.9,221.4h7.5v15l13.9-15h9.1l-13.9,14.5l14.6,19.7h-9l-10.6-14.6l-4,4.1v10.5h-7.5V221.4z"/>
		</g>
		
			<linearGradient id="SVGID_00000161631915104433903110000000272591651563046556_" gradientUnits="userSpaceOnUse" x1="-838.8504" y1="173.7775" x2="-907.8842" y2="92.3457" gradientTransform="matrix(1 0 0 -1 0 350)">
			<stop  offset="0" style="stop-color:#B8D433"/>
			<stop  offset="1" style="stop-color:#5FB683"/>
		</linearGradient>
		<path style="fill:url(#SVGID_00000161631915104433903110000000272591651563046556_);" d="M-874.4,238c9.8,0,17.7,7.9,17.7,17.7
			c0,9.8-7.9,17.7-17.7,17.7h-0.1c-23.2,0-42.4-14.8-49.7-35.5 M-874.4,237.9c-9.8,0-17.7-7.9-17.7-17.7s7.1-17.8,16.9-17.8l0.2,0
			c0.4,0,0.8,0,1.2,0c27.2,0,43,14.9,50.3,35.6c2-5.6,3-11.5,3-17.8c0-29.4-23.9-53.3-53.3-53.3s-53.3,23.9-53.3,53.3
			c0,6.2,1.1,12.2,3,17.8"/>
		
			<linearGradient id="SVGID_00000095322483826243312890000002807020217024146840_" gradientUnits="userSpaceOnUse" x1="-3620.2119" y1="1056.4883" x2="-3659.2773" y2="955.9595" gradientTransform="matrix(-1 0 0 1 -4520.4697 -734.7641)">
			<stop  offset="0" style="stop-color:#5FB683"/>
			<stop  offset="1" style="stop-color:#5B7A97"/>
		</linearGradient>
		<path style="fill:url(#SVGID_00000095322483826243312890000002807020217024146840_);" d="M-874.8,237.9c-9.8,0-17.7-7.9-17.7-17.7
			s7.9-17.7,17.7-17.7h0.1c23.2,0,41.5,9.5,51.2,35.5 M-874.8,237.9c9.8,0,17.7,7.9,17.7,17.7s-7.1,17.8-16.9,17.8l-0.2,0
			c-0.4,0-0.8,0-1.2,0c-27.4-2-39.8-15.5-48.8-35.6c-2,5.6-3.5,11.5-3.5,17.8c0,29.4,22.9,53.3,52.3,53.3s53.3-23.9,53.3-53.3
			c0-6.2,0.4-12.2-1.5-17.8"/>
		<g>
			<path class="st9" d="M-780.1,271.5L-780.1,271.5c0-1.3,1-2.5,2.4-2.5c0.8,0,1.3,0.2,1.8,0.6l-0.3,0.4c-0.4-0.3-0.8-0.5-1.5-0.5
				c-1.1,0-1.8,0.9-1.8,2v0c0,1.2,0.7,2,1.9,2c0.5,0,1.1-0.2,1.4-0.5v-1.2h-1.5v-0.5h2v1.9c-0.5,0.4-1.1,0.7-2,0.7
				C-779.2,274-780.1,272.8-780.1,271.5z"/>
			<path class="st9" d="M-774.5,269h3.5v0.5h-3v1.7h2.7v0.5h-2.7v1.7h3v0.5h-3.5V269z"/>
			<path class="st9" d="M-770.1,273.2l0.3-0.4c0.5,0.5,1,0.7,1.7,0.7c0.7,0,1.1-0.4,1.1-0.8v0c0-0.5-0.2-0.7-1.3-0.9
				c-1.1-0.2-1.6-0.6-1.6-1.4v0c0-0.8,0.7-1.3,1.6-1.3c0.7,0,1.2,0.2,1.7,0.6l-0.3,0.4c-0.5-0.4-0.9-0.5-1.4-0.5c-0.6,0-1,0.4-1,0.8
				v0c0,0.5,0.2,0.7,1.3,0.9c1.1,0.2,1.6,0.6,1.6,1.4v0c0,0.8-0.7,1.4-1.7,1.4C-768.9,273.9-769.6,273.7-770.1,273.2z"/>
			<path class="st9" d="M-764.2,269.5h-1.6V269h3.8v0.5h-1.6v4.3h-0.5V269.5z"/>
			<path class="st9" d="M-761,269h0.5v4.9h-0.5V269z"/>
			<path class="st9" d="M-759.2,271.5L-759.2,271.5c0-1.4,1-2.5,2.5-2.5s2.5,1.2,2.5,2.5v0c0,1.3-1,2.5-2.5,2.5
				S-759.2,272.8-759.2,271.5z M-754.8,271.5L-754.8,271.5c0-1.1-0.8-2-1.9-2s-1.9,0.9-1.9,2v0c0,1.1,0.8,2,1.9,2
				S-754.8,272.6-754.8,271.5z M-756.3,267.6l0.5,0.2l-0.8,0.6h-0.4L-756.3,267.6z"/>
			<path class="st9" d="M-753.1,269h0.5l3.1,3.9V269h0.5v4.9h-0.4l-3.1-4v4h-0.5V269z"/>
			<path class="st9" d="M-745.9,273.2l0.3-0.4c0.5,0.5,1,0.7,1.7,0.7c0.7,0,1.1-0.4,1.1-0.8v0c0-0.5-0.2-0.7-1.3-0.9
				c-1.1-0.2-1.6-0.6-1.6-1.4v0c0-0.8,0.7-1.3,1.6-1.3c0.7,0,1.2,0.2,1.7,0.6l-0.3,0.4c-0.5-0.4-0.9-0.5-1.4-0.5c-0.6,0-1,0.4-1,0.8
				v0c0,0.5,0.2,0.7,1.3,0.9c1.1,0.2,1.6,0.6,1.6,1.4v0c0,0.8-0.7,1.4-1.7,1.4C-744.7,273.9-745.3,273.7-745.9,273.2z"/>
			<path class="st9" d="M-741.3,271.5L-741.3,271.5c0-1.4,1-2.5,2.5-2.5s2.5,1.2,2.5,2.5v0c0,1.3-1,2.5-2.5,2.5
				S-741.3,272.8-741.3,271.5z M-737,271.5L-737,271.5c0-1.1-0.8-2-1.9-2s-1.9,0.9-1.9,2v0c0,1.1,0.8,2,1.9,2S-737,272.6-737,271.5z
				"/>
			<path class="st9" d="M-735.6,273.2l0.3-0.4c0.5,0.5,1,0.7,1.7,0.7c0.7,0,1.1-0.4,1.1-0.8v0c0-0.5-0.2-0.7-1.3-0.9
				c-1.1-0.2-1.6-0.6-1.6-1.4v0c0-0.8,0.7-1.3,1.6-1.3c0.7,0,1.2,0.2,1.7,0.6l-0.3,0.4c-0.5-0.4-0.9-0.5-1.4-0.5c-0.6,0-1,0.4-1,0.8
				v0c0,0.5,0.2,0.7,1.3,0.9c1.1,0.2,1.6,0.6,1.6,1.4v0c0,0.8-0.7,1.4-1.7,1.4C-734.4,273.9-735,273.7-735.6,273.2z"/>
			<path class="st9" d="M-729.7,269.5h-1.6V269h3.8v0.5h-1.6v4.3h-0.5V269.5z"/>
			<path class="st9" d="M-726.5,269h3.5v0.5h-3v1.7h2.7v0.5h-2.7v1.7h3v0.5h-3.5V269z"/>
			<path class="st9" d="M-721.8,269h0.5l3.1,3.9V269h0.5v4.9h-0.4l-3.1-4v4h-0.5V269z"/>
			<path class="st9" d="M-716.3,269h0.5v4.9h-0.5V269z"/>
			<path class="st9" d="M-714.3,269h2.1c0.5,0,1,0.2,1.3,0.4c0.2,0.2,0.3,0.5,0.3,0.8v0c0,0.6-0.4,1-0.8,1.1c0.6,0.2,1,0.5,1,1.2v0
				c0,0.8-0.7,1.3-1.8,1.3h-2.2L-714.3,269L-714.3,269z M-712.3,271.2c0.7,0,1.1-0.3,1.1-0.9v0c0-0.5-0.4-0.8-1.1-0.8h-1.5v1.7
				H-712.3z M-712.2,273.4c0.7,0,1.2-0.3,1.2-0.9v0c0-0.5-0.4-0.8-1.3-0.8h-1.5v1.7H-712.2z"/>
			<path class="st9" d="M-709.3,269h0.5v4.3h2.7v0.5h-3.3L-709.3,269L-709.3,269z"/>
			<path class="st9" d="M-705,269h3.5v0.5h-3v1.7h2.7v0.5h-2.7v1.7h3v0.5h-3.5V269z"/>
			<path class="st9" d="M-698.3,269h1.7c1.5,0,2.6,1,2.6,2.4v0c0,1.4-1,2.4-2.6,2.4h-1.7V269z M-696.6,273.4c1.2,0,2-0.8,2-1.9v0
				c0-1.1-0.8-1.9-2-1.9h-1.1v3.8L-696.6,273.4L-696.6,273.4z"/>
			<path class="st9" d="M-692.9,269h3.5v0.5h-3v1.7h2.7v0.5h-2.7v1.7h3v0.5h-3.5V269z"/>
			<path class="st9" d="M-686.2,269h1.8c1.1,0,1.8,0.6,1.8,1.5v0c0,1-0.9,1.6-1.9,1.6h-1.2v1.7h-0.5V269z M-684.4,271.7
				c0.8,0,1.3-0.4,1.3-1.1v0c0-0.7-0.5-1-1.3-1h-1.2v2.1H-684.4z"/>
			<path class="st9" d="M-681.6,269h2.1c0.6,0,1.1,0.2,1.4,0.5c0.2,0.2,0.4,0.6,0.4,1v0c0,0.8-0.5,1.3-1.3,1.4l1.5,2h-0.7l-1.4-1.9
				h-1.4v1.9h-0.5L-681.6,269L-681.6,269z M-679.5,271.5c0.7,0,1.2-0.4,1.2-1v0c0-0.6-0.5-1-1.2-1h-1.5v2H-679.5z"/>
			<path class="st9" d="M-676.8,271.5L-676.8,271.5c0-1.4,1-2.5,2.5-2.5s2.5,1.2,2.5,2.5v0c0,1.3-1,2.5-2.5,2.5
				S-676.8,272.8-676.8,271.5z M-672.4,271.5L-672.4,271.5c0-1.1-0.8-2-1.9-2s-1.9,0.9-1.9,2v0c0,1.1,0.8,2,1.9,2
				S-672.4,272.6-672.4,271.5z"/>
			<path class="st9" d="M-671.4,269h0.6l1.7,4.2l1.7-4.2h0.6l-2.1,4.9h-0.5L-671.4,269z"/>
			<path class="st9" d="M-665.8,269h3.5v0.5h-3v1.7h2.7v0.5h-2.7v1.7h3v0.5h-3.5V269z"/>
			<path class="st9" d="M-661.1,269h3.5v0.5h-3v1.7h2.7v0.5h-2.7v1.7h3v0.5h-3.5V269z"/>
			<path class="st9" d="M-656.5,269h1.7c1.5,0,2.6,1,2.6,2.4v0c0,1.4-1,2.4-2.6,2.4h-1.7V269z M-654.8,273.4c1.2,0,2-0.8,2-1.9v0
				c0-1.1-0.8-1.9-2-1.9h-1.1v3.8L-654.8,273.4L-654.8,273.4z"/>
			<path class="st9" d="M-651.3,271.5L-651.3,271.5c0-1.4,1-2.5,2.5-2.5s2.5,1.2,2.5,2.5v0c0,1.3-1,2.5-2.5,2.5
				S-651.3,272.8-651.3,271.5z M-646.9,271.5L-646.9,271.5c0-1.1-0.8-2-1.9-2s-1.9,0.9-1.9,2v0c0,1.1,0.8,2,1.9,2
				S-646.9,272.6-646.9,271.5z"/>
			<path class="st9" d="M-645.2,269h2.1c0.6,0,1.1,0.2,1.4,0.5c0.2,0.2,0.4,0.6,0.4,1v0c0,0.8-0.5,1.3-1.3,1.4l1.5,2h-0.7l-1.4-1.9
				h-1.4v1.9h-0.5L-645.2,269L-645.2,269z M-643.1,271.5c0.7,0,1.2-0.4,1.2-1v0c0-0.6-0.5-1-1.2-1h-1.5v2H-643.1z"/>
			<path class="st9" d="M-640.2,269h3.5v0.5h-3v1.7h2.7v0.5h-2.7v1.7h3v0.5h-3.5V269z"/>
			<path class="st9" d="M-635.8,273.2l0.3-0.4c0.5,0.5,1,0.7,1.7,0.7c0.7,0,1.1-0.4,1.1-0.8v0c0-0.5-0.2-0.7-1.3-0.9
				c-1.1-0.2-1.6-0.6-1.6-1.4v0c0-0.8,0.7-1.3,1.6-1.3c0.7,0,1.2,0.2,1.7,0.6l-0.3,0.4c-0.5-0.4-0.9-0.5-1.4-0.5c-0.6,0-1,0.4-1,0.8
				v0c0,0.5,0.2,0.7,1.3,0.9c1.1,0.2,1.6,0.6,1.6,1.4v0c0,0.8-0.7,1.4-1.7,1.4C-634.6,273.9-635.3,273.7-635.8,273.2z"/>
		</g>
	</g>
	<g class="st2">
		<g>
			<path d="M-380.5,238.7v-0.1c0-9.7,7.3-17.7,17.9-17.7c6.5,0,10.3,2.1,13.5,5.3l-4.8,5.5c-2.6-2.4-5.3-3.9-8.8-3.9
				c-5.8,0-9.9,4.8-9.9,10.7v0.1c0,5.9,4.1,10.8,9.9,10.8c3.9,0,6.3-1.6,9-4l4.8,4.8c-3.5,3.8-7.4,6.1-14,6.1
				C-373,256.3-380.5,248.5-380.5,238.7z"/>
			<path d="M-345.3,248.2v-0.1c0-5.7,4.4-8.4,10.6-8.4c2.6,0,4.5,0.4,6.4,1.1v-0.4c0-3.1-1.9-4.8-5.6-4.8c-2.8,0-4.8,0.5-7.2,1.4
				l-1.9-5.7c2.9-1.3,5.7-2.1,10.2-2.1c4.1,0,7,1.1,8.9,2.9c2,2,2.8,4.8,2.8,8.4v15.2h-7.2v-2.8c-1.8,2-4.3,3.3-7.9,3.3
				C-341.2,256.2-345.3,253.3-345.3,248.2z M-328.2,246.4v-1.3c-1.3-0.6-2.9-1-4.7-1c-3.2,0-5.1,1.3-5.1,3.6v0.1
				c0,2,1.7,3.2,4.1,3.2C-330.5,251-328.2,249.1-328.2,246.4z"/>
			<path d="M-314.4,220h7.4v35.7h-7.4V220z"/>
			<path d="M-299.8,220h7.8v6.6h-7.8V220z M-299.6,229.5h7.4v26.2h-7.4V229.5z"/>
			<path d="M-284,235.8h-3.1v-6.1h3.1v-1.7c0-2.9,0.7-5,2.1-6.4s3.4-2.1,6-2.1c2.4,0,3.9,0.3,5.3,0.7v6.2c-1.1-0.4-2.1-0.6-3.4-0.6
				c-1.7,0-2.7,0.9-2.7,2.8v1h6v6.1h-5.9v19.9h-7.4L-284,235.8L-284,235.8z M-266.4,220h7.8v6.6h-7.8V220z M-266.2,229.5h7.4v26.2
				h-7.4V229.5z"/>
			<path d="M-252.6,237h15.1v7.1h-15.1V237z"/>
			<path d="M-231,221.5h7.5v15l13.9-15h9.1l-13.9,14.5l14.6,19.7h-9.1l-10.6-14.6l-4,4.1v10.5h-7.5L-231,221.5L-231,221.5z"/>
		</g>
		
			<linearGradient id="SVGID_00000098195528024315781700000012315770175421689001_" gradientUnits="userSpaceOnUse" x1="-434.0269" y1="201.3535" x2="-470.4671" y2="101.0094" gradientTransform="matrix(1 0 0 -1 0 350)">
			<stop  offset="0" style="stop-color:#BBBDBF"/>
			<stop  offset="0.2032" style="stop-color:#ABADAF"/>
			<stop  offset="0.6005" style="stop-color:#828385"/>
			<stop  offset="1" style="stop-color:#535355"/>
		</linearGradient>
		<path style="fill:url(#SVGID_00000098195528024315781700000012315770175421689001_);" d="M-460.5,238c9.8,0,17.7,7.9,17.7,17.7
			s-7.9,17.7-17.7,17.7h-0.1c-23.2,0-42.4-14.8-49.7-35.5 M-460.5,237.9c-9.8,0-17.7-7.9-17.7-17.7s7.1-17.8,16.9-17.8l0.2,0
			c0.4,0,0.8,0,1.2,0c27.2,0,43,14.9,50.3,35.6c2-5.6,3-11.5,3-17.8c0-29.4-23.9-53.3-53.3-53.3s-53.3,23.9-53.3,53.3
			c0,6.2,1.1,12.2,3,17.8"/>
		
			<linearGradient id="SVGID_00000052075063127513353300000012351764155325227193_" gradientUnits="userSpaceOnUse" x1="-4083.9543" y1="954.1418" x2="-4025.5273" y2="1044.7972" gradientTransform="matrix(-1 0 0 1 -4520.4697 -734.7641)">
			<stop  offset="0" style="stop-color:#BBBDBF"/>
			<stop  offset="0.2032" style="stop-color:#ABADAF"/>
			<stop  offset="0.6005" style="stop-color:#828385"/>
			<stop  offset="1" style="stop-color:#535355"/>
		</linearGradient>
		<path style="fill:url(#SVGID_00000052075063127513353300000012351764155325227193_);" d="M-461,237.9c-9.8,0-17.7-7.9-17.7-17.7
			s7.9-17.7,17.7-17.7h0.1c23.2,0,41.5,9.5,51.2,35.5 M-461,237.9c9.8,0,17.7,7.9,17.7,17.7c0,9.8-7.1,17.8-16.9,17.8l-0.2,0
			c-0.4,0-0.8,0-1.2,0c-27.4-2-39.8-15.5-48.8-35.6c-2,5.6-3.5,11.5-3.5,17.8c0,29.4,22.9,53.3,52.3,53.3s53.3-23.9,53.3-53.3
			c0-6.2,0.4-12.2-1.5-17.8"/>
	</g>
	<g class="st2">
		<g>
			<path class="st12" d="M-589.8,5.4L-589.8,5.4c0-1.9,1.4-3.6,3.5-3.6c1.2,0,1.9,0.3,2.6,0.9l-0.5,0.6c-0.5-0.5-1.1-0.8-2.1-0.8
				c-1.5,0-2.6,1.3-2.6,2.8v0c0,1.6,1,2.9,2.7,2.9c0.8,0,1.5-0.3,2-0.7V5.8h-2.1V5.1h2.8v2.8c-0.6,0.6-1.6,1.1-2.8,1.1
				C-588.5,8.9-589.8,7.4-589.8,5.4z"/>
			<path class="st12" d="M-581.8,1.9h5v0.7h-4.2V5h3.8v0.7h-3.8v2.4h4.2v0.7h-5V1.9z"/>
			<path class="st12" d="M-575.6,7.8l0.5-0.6c0.7,0.7,1.4,1,2.4,1c0.9,0,1.5-0.5,1.5-1.2v0c0-0.6-0.3-1-1.8-1.3
				c-1.6-0.3-2.3-0.9-2.3-2v0c0-1.1,1-1.9,2.3-1.9c1,0,1.7,0.3,2.4,0.9l-0.5,0.6c-0.6-0.5-1.3-0.8-2-0.8c-0.9,0-1.5,0.5-1.5,1.1v0
				c0,0.7,0.3,1,1.9,1.3c1.5,0.3,2.2,0.9,2.2,2v0c0,1.2-1,2-2.3,2C-573.9,8.9-574.8,8.6-575.6,7.8z"/>
			<path class="st12" d="M-567.2,2.7h-2.3V1.9h5.4v0.7h-2.3v6.2h-0.8V2.7z"/>
			<path class="st12" d="M-562.6,1.9h0.8v6.9h-0.8V1.9z"/>
			<path class="st12" d="M-560.1,5.4L-560.1,5.4c0-1.9,1.4-3.6,3.5-3.6c2.1,0,3.5,1.6,3.5,3.5v0c0,1.9-1.4,3.6-3.5,3.6
				S-560.1,7.3-560.1,5.4z M-553.9,5.4L-553.9,5.4c0-1.6-1.1-2.9-2.7-2.9c-1.6,0-2.7,1.3-2.7,2.8v0c0,1.6,1.1,2.8,2.7,2.8
				C-555,8.2-553.9,7-553.9,5.4z M-555.9-0.1l0.8,0.3l-1.1,0.9h-0.6L-555.9-0.1z"/>
			<path class="st12" d="M-551.4,1.9h0.7l4.3,5.5V1.9h0.8v6.9h-0.6l-4.5-5.7v5.7h-0.8V1.9z"/>
			<path class="st12" d="M-541.2,7.8l0.5-0.6c0.7,0.7,1.4,1,2.4,1c0.9,0,1.5-0.5,1.5-1.2v0c0-0.6-0.3-1-1.8-1.3
				c-1.6-0.3-2.3-0.9-2.3-2v0c0-1.1,1-1.9,2.3-1.9c1,0,1.7,0.3,2.4,0.9l-0.5,0.6c-0.6-0.5-1.3-0.8-2-0.8c-0.9,0-1.5,0.5-1.5,1.1v0
				c0,0.7,0.3,1,1.9,1.3c1.5,0.3,2.2,0.9,2.2,2v0c0,1.2-1,2-2.3,2C-539.4,8.9-540.3,8.6-541.2,7.8z"/>
			<path class="st12" d="M-534.7,5.4L-534.7,5.4c0-1.9,1.4-3.6,3.5-3.6c2.1,0,3.5,1.6,3.5,3.5v0c0,1.9-1.4,3.6-3.5,3.6
				S-534.7,7.3-534.7,5.4z M-528.5,5.4L-528.5,5.4c0-1.6-1.1-2.9-2.7-2.9c-1.6,0-2.7,1.3-2.7,2.8v0c0,1.6,1.1,2.8,2.7,2.8
				C-529.6,8.2-528.5,7-528.5,5.4z"/>
			<path class="st12" d="M-526.5,7.8l0.5-0.6c0.7,0.7,1.4,1,2.4,1c0.9,0,1.5-0.5,1.5-1.2v0c0-0.6-0.3-1-1.8-1.3
				c-1.6-0.3-2.3-0.9-2.3-2v0c0-1.1,1-1.9,2.3-1.9c1,0,1.7,0.3,2.4,0.9l-0.5,0.6c-0.6-0.5-1.3-0.8-2-0.8c-0.9,0-1.5,0.5-1.5,1.1v0
				c0,0.7,0.3,1,1.9,1.3c1.5,0.3,2.2,0.9,2.2,2v0c0,1.2-1,2-2.3,2C-524.8,8.9-525.7,8.6-526.5,7.8z"/>
			<path class="st12" d="M-518.1,2.7h-2.3V1.9h5.4v0.7h-2.3v6.2h-0.8V2.7z"/>
			<path class="st12" d="M-513.5,1.9h5v0.7h-4.2V5h3.8v0.7h-3.8v2.4h4.2v0.7h-5V1.9z"/>
			<path class="st12" d="M-507,1.9h0.7l4.3,5.5V1.9h0.8v6.9h-0.6l-4.5-5.7v5.7h-0.8V1.9z"/>
			<path class="st12" d="M-499.1,1.9h0.8v6.9h-0.8V1.9z"/>
			<path class="st12" d="M-496.3,1.9h2.9c0.8,0,1.4,0.2,1.8,0.6c0.3,0.3,0.4,0.7,0.4,1.1v0c0,0.9-0.5,1.4-1.1,1.6
				c0.8,0.2,1.5,0.7,1.5,1.7v0c0,1.2-1,1.9-2.5,1.9h-3.1V1.9z M-493.5,5c0.9,0,1.6-0.4,1.6-1.2v0c0-0.7-0.5-1.1-1.5-1.1h-2.1V5
				H-493.5z M-493.2,8.1c1,0,1.7-0.5,1.7-1.2v0c0-0.8-0.6-1.2-1.8-1.2h-2.2v2.4H-493.2z"/>
			<path class="st12" d="M-489.2,1.9h0.8v6.2h3.9v0.7h-4.7V1.9z"/>
			<path class="st12" d="M-483.1,1.9h5v0.7h-4.2V5h3.8v0.7h-3.8v2.4h4.2v0.7h-5V1.9z"/>
			<path class="st12" d="M-473.6,1.9h2.4c2.2,0,3.7,1.5,3.7,3.4v0c0,1.9-1.5,3.4-3.7,3.4h-2.4V1.9z M-471.2,8.1
				c1.7,0,2.9-1.2,2.9-2.7v0c0-1.5-1.1-2.7-2.9-2.7h-1.6v5.5H-471.2z"/>
			<path class="st12" d="M-465.9,1.9h5v0.7h-4.2V5h3.8v0.7h-3.8v2.4h4.2v0.7h-5V1.9z"/>
			<path class="st12" d="M-456.3,1.9h2.6c1.6,0,2.6,0.8,2.6,2.2v0c0,1.5-1.2,2.2-2.7,2.2h-1.7v2.4h-0.8L-456.3,1.9L-456.3,1.9z
				 M-453.8,5.7c1.1,0,1.9-0.6,1.9-1.5v0c0-1-0.7-1.5-1.9-1.5h-1.7v3C-455.5,5.7-453.8,5.7-453.8,5.7z"/>
			<path class="st12" d="M-449.8,1.9h3c0.9,0,1.5,0.3,2,0.7c0.3,0.3,0.5,0.8,0.5,1.4v0c0,1.1-0.8,1.8-1.9,2l2.1,2.8h-0.9l-2-2.7h-2
				v2.7h-0.8V1.9z M-446.9,5.4c1,0,1.8-0.5,1.8-1.4v0c0-0.8-0.6-1.4-1.8-1.4h-2.1v2.8L-446.9,5.4L-446.9,5.4z"/>
			<path class="st12" d="M-442.9,5.4L-442.9,5.4c0-1.9,1.4-3.6,3.5-3.6c2.1,0,3.5,1.6,3.5,3.5v0c0,1.9-1.4,3.6-3.5,3.6
				S-442.9,7.3-442.9,5.4z M-436.7,5.4L-436.7,5.4c0-1.6-1.1-2.9-2.7-2.9c-1.6,0-2.7,1.3-2.7,2.8v0c0,1.6,1.1,2.8,2.7,2.8
				C-437.8,8.2-436.7,7-436.7,5.4z"/>
			<path class="st12" d="M-435.3,1.9h0.9l2.5,5.9l2.5-5.9h0.8l-3,6.9h-0.7L-435.3,1.9z"/>
			<path class="st12" d="M-427.3,1.9h5v0.7h-4.2V5h3.8v0.7h-3.8v2.4h4.2v0.7h-5V1.9z"/>
			<path class="st12" d="M-420.7,1.9h5v0.7h-4.2V5h3.8v0.7h-3.8v2.4h4.2v0.7h-5V1.9z"/>
			<path class="st12" d="M-414.1,1.9h2.4c2.2,0,3.7,1.5,3.7,3.4v0c0,1.9-1.5,3.4-3.7,3.4h-2.4V1.9z M-411.7,8.1
				c1.7,0,2.9-1.2,2.9-2.7v0c0-1.5-1.1-2.7-2.9-2.7h-1.6v5.5H-411.7z"/>
			<path class="st12" d="M-406.7,5.4L-406.7,5.4c0-1.9,1.4-3.6,3.5-3.6c2.1,0,3.5,1.6,3.5,3.5v0c0,1.9-1.4,3.6-3.5,3.6
				S-406.7,7.3-406.7,5.4z M-400.5,5.4L-400.5,5.4c0-1.6-1.1-2.9-2.7-2.9c-1.6,0-2.7,1.3-2.7,2.8v0c0,1.6,1.1,2.8,2.7,2.8
				C-401.6,8.2-400.5,7-400.5,5.4z"/>
			<path class="st12" d="M-398,1.9h3c0.9,0,1.5,0.3,2,0.7c0.3,0.3,0.5,0.8,0.5,1.4v0c0,1.1-0.8,1.8-1.9,2l2.1,2.8h-1l-2-2.7h-2v2.7
				h-0.8L-398,1.9L-398,1.9z M-395.1,5.4c1,0,1.8-0.5,1.8-1.4v0c0-0.8-0.6-1.4-1.8-1.4h-2.1v2.8L-395.1,5.4L-395.1,5.4z"/>
			<path class="st12" d="M-390.9,1.9h5v0.7h-4.2V5h3.8v0.7h-3.8v2.4h4.2v0.7h-5V1.9z"/>
			<path class="st12" d="M-384.8,7.8l0.5-0.6c0.7,0.7,1.4,1,2.4,1c0.9,0,1.5-0.5,1.5-1.2v0c0-0.6-0.3-1-1.8-1.3
				c-1.6-0.3-2.3-0.9-2.3-2v0c0-1.1,1-1.9,2.3-1.9c1,0,1.7,0.3,2.4,0.9l-0.5,0.6c-0.6-0.5-1.3-0.8-2-0.8c-0.9,0-1.5,0.5-1.5,1.1v0
				c0,0.7,0.4,1,1.9,1.3c1.5,0.3,2.2,0.9,2.2,2v0c0,1.2-1,2-2.4,2C-383,8.9-383.9,8.6-384.8,7.8z"/>
		</g>
	</g>
</g>
<g id="Layer_4">
	<g>
		<g>
			<path class="st6" d="M312.7,177.4v-0.2c0-21.9,16.5-39.8,40.1-39.8c14.5,0,23.2,4.8,30.4,11.9l-10.8,12.4
				c-5.9-5.4-12-8.7-19.7-8.7c-13,0-22.3,10.8-22.3,24v0.2c0,13.2,9.1,24.2,22.3,24.2c8.8,0,14.2-3.5,20.2-9l10.8,10.9
				c-7.9,8.5-16.7,13.8-31.6,13.8C329.5,217,312.7,199.5,312.7,177.4z"/>
			<path class="st6" d="M392,198.8v-0.2c0-12.9,9.8-18.8,23.8-18.8c5.9,0,10.2,1,14.4,2.4v-1c0-6.9-4.3-10.8-12.6-10.8
				c-6.4,0-10.9,1.2-16.3,3.2l-4.2-12.8c6.5-2.9,12.9-4.7,22.9-4.7c9.1,0,15.7,2.4,19.9,6.6c4.4,4.4,6.4,10.9,6.4,18.8v34.2h-16.2
				v-6.4c-4.1,4.5-9.7,7.5-17.8,7.5C401.1,216.8,392,210.4,392,198.8z M430.4,194.9v-3c-2.9-1.3-6.6-2.2-10.7-2.2
				c-7.1,0-11.5,2.9-11.5,8.1v0.2c0,4.5,3.7,7.1,9.1,7.1C425.1,205.2,430.4,201,430.4,194.9z"/>
			<path class="st6" d="M461.4,135.4h16.7v80.3h-16.7V135.4z"/>
			<path class="st6" d="M494.2,135.4h17.6v14.9h-17.6V135.4z M494.6,156.7h16.7v59h-16.7V156.7z"/>
			<path class="st6" d="M530,171H523v-13.8h6.9v-3.7c0-6.5,1.7-11.2,4.7-14.3s7.6-4.6,13.5-4.6c5.3,0,8.8,0.7,11.9,1.6v13.9
				c-2.4-0.9-4.7-1.4-7.6-1.4c-3.8,0-6,2-6,6.4v2.3H560V171h-13.3v44.7H530L530,171L530,171z M569.4,135.4H587v14.9h-17.6V135.4z
				 M569.9,156.7h16.7v59h-16.7V156.7z"/>
			<path class="st6" d="M600.3,173.6h33.9v16.1h-33.9V173.6z"/>
			<path class="st6" d="M649,138.7h16.9v33.7l31.2-33.7h20.5l-31.3,32.7l32.8,44.3h-20.3l-23.9-32.8l-8.9,9.2v23.5H649L649,138.7
				L649,138.7z"/>
		</g>
		
			<linearGradient id="SVGID_00000141450407504297032370000012665925832748936604_" gradientUnits="userSpaceOnUse" x1="212.7073" y1="313.1076" x2="57.4126" y2="129.9228" gradientTransform="matrix(1 0 0 -1 0 350)">
			<stop  offset="0" style="stop-color:#B8D433"/>
			<stop  offset="1" style="stop-color:#5FB683"/>
		</linearGradient>
		<path style="fill:url(#SVGID_00000141450407504297032370000012665925832748936604_);" d="M132.8,175.8c22,0,39.9,17.9,39.9,39.9
			s-17.9,39.9-39.9,39.9h-0.2c-52.2,0-95.4-33.2-111.8-79.8 M132.8,175.7c-22,0-39.9-17.9-39.9-39.9s15.9-40,37.9-40l0.4,0
			c0.9,0,1.8,0,2.6,0c61.1,0,96.7,33.4,113.1,80c4.4-12.5,6.8-25.9,6.8-39.9c0-66.2-53.7-119.9-119.9-119.9S14,69.6,14,135.8
			c0,14,2.4,27.4,6.8,39.9"/>
		
			<linearGradient id="SVGID_00000149351306191418743630000005545868816655778192_" gradientUnits="userSpaceOnUse" x1="-4595.0596" y1="1098.937" x2="-4682.9282" y2="872.8188" gradientTransform="matrix(-1 0 0 1 -4520.4697 -734.7641)">
			<stop  offset="0" style="stop-color:#5FB683"/>
			<stop  offset="1" style="stop-color:#5B7A97"/>
		</linearGradient>
		<path style="fill:url(#SVGID_00000149351306191418743630000005545868816655778192_);" d="M131.7,175.6c-22,0-39.9-17.9-39.9-39.9
			s17.9-39.9,39.9-39.9h0.2c52.2,0,93.2,21.4,115.2,79.8 M131.7,175.7c22,0,39.9,17.9,39.9,39.9s-15.9,40-37.9,40l-0.4,0
			c-0.9,0-1.8,0.1-2.6,0c-61.7-4.5-89.5-35-109.8-80c-4.4,12.5-7.9,25.9-7.9,39.9c0,66.2,51.5,119.9,117.7,119.9
			s119.9-53.7,119.9-119.9c0-14,0.9-27.4-3.5-39.9"/>
	</g>
	<g>
		<path class="st9" d="M313,238.9L313,238.9c0-3.1,2.3-5.7,5.5-5.7c2,0,3.2,0.7,4.2,1.7l-0.8,0.9c-0.9-0.9-2-1.5-3.4-1.5
			c-2.4,0-4.2,2-4.2,4.5v0c0,2.5,1.8,4.5,4.2,4.5c1.5,0,2.5-0.6,3.5-1.6l0.8,0.8c-1.1,1.1-2.4,1.9-4.4,1.9
			C315.3,244.5,313,242.1,313,238.9z"/>
		<path class="st9" d="M329,233.4h1.1l5,11h-1.3l-1.3-2.9h-5.9l-1.3,2.9H324L329,233.4z M332,240.4l-2.5-5.6l-2.5,5.6H332z"/>
		<path class="st9" d="M337.3,233.4h1.2v9.8h6.1v1.1h-7.4L337.3,233.4L337.3,233.4z"/>
		<path class="st9" d="M347,233.4h1.2v10.9H347V233.4z"/>
		<path class="st9" d="M351.5,233.4h7.8v1.1h-6.6v3.9h5.9v1.1h-5.9v4.8h-1.2V233.4z"/>
		<path class="st9" d="M361.8,233.4h1.2v10.9h-1.2V233.4z"/>
		<path class="st9" d="M365.7,238.9L365.7,238.9c0-3.1,2.3-5.7,5.5-5.7c2,0,3.2,0.7,4.2,1.7l-0.8,0.9c-0.9-0.9-2-1.5-3.4-1.5
			c-2.4,0-4.2,2-4.2,4.5v0c0,2.5,1.8,4.5,4.2,4.5c1.5,0,2.5-0.6,3.5-1.6l0.8,0.8c-1.1,1.1-2.4,1.9-4.4,1.9
			C368,244.5,365.7,242.1,365.7,238.9z"/>
		<path class="st9" d="M381.8,233.4h1.1l5,11h-1.3l-1.3-2.9h-5.9l-1.3,2.9h-1.3L381.8,233.4z M384.8,240.4l-2.5-5.6l-2.5,5.6H384.8z
			"/>
		<path class="st9" d="M388.9,238.9L388.9,238.9c0-3.1,2.3-5.7,5.5-5.7c2,0,3.2,0.7,4.2,1.7l-0.8,0.9c-0.9-0.9-2-1.5-3.4-1.5
			c-2.4,0-4.2,2-4.2,4.5v0c0,2.5,1.8,4.5,4.2,4.5c1.5,0,2.5-0.6,3.5-1.6l0.8,0.8c-1.1,1.1-2.4,1.9-4.4,1.9
			C391.2,244.5,388.9,242.1,388.9,238.9z"/>
		<path class="st9" d="M401,233.4h1.2v10.9H401V233.4z"/>
		<path class="st9" d="M404.9,238.9L404.9,238.9c0-3,2.3-5.7,5.6-5.7s5.5,2.6,5.5,5.6v0c0,3-2.3,5.6-5.6,5.6
			S404.9,241.9,404.9,238.9z M414.8,238.9L414.8,238.9c0-2.5-1.8-4.5-4.3-4.5s-4.3,2-4.3,4.5v0c0,2.5,1.8,4.5,4.3,4.5
			C413,243.4,414.8,241.4,414.8,238.9z M411.5,230.3l1.2,0.6l-1.8,1.4h-1L411.5,230.3z"/>
		<path class="st9" d="M418.6,233.4h1.1l6.9,8.7v-8.7h1.2v10.9h-1l-7-8.9v8.9h-1.2L418.6,233.4L418.6,233.4z"/>
		<path class="st9" d="M439,240l-4.5-6.6h1.5l3.7,5.4l3.7-5.4h1.4l-4.5,6.6v4.3H439L439,240L439,240z"/>
		<path class="st9" d="M451,238.9L451,238.9c0-3.1,2.3-5.7,5.5-5.7c2,0,3.2,0.7,4.2,1.7l-0.8,0.9c-0.9-0.9-2-1.5-3.4-1.5
			c-2.4,0-4.2,2-4.2,4.5v0c0,2.5,1.8,4.5,4.2,4.5c1.5,0,2.5-0.6,3.5-1.6l0.8,0.8c-1.1,1.1-2.4,1.9-4.4,1.9
			C453.3,244.5,451,242.1,451,238.9z"/>
		<path class="st9" d="M467,233.4h1.1l5,11h-1.3l-1.3-2.9h-5.9l-1.3,2.9H462L467,233.4z M470,240.4l-2.5-5.6l-2.5,5.6H470z"/>
		<path class="st9" d="M475.3,233.4h4.1c2.5,0,4.1,1.3,4.1,3.5v0c0,2.4-2,3.6-4.3,3.6h-2.6v3.9h-1.2L475.3,233.4L475.3,233.4z
			 M479.2,239.4c1.8,0,3-1,3-2.4v0c0-1.6-1.2-2.4-2.9-2.4h-2.8v4.8L479.2,239.4L479.2,239.4z"/>
		<path class="st9" d="M488.6,233.4h1.1l5,11h-1.3l-1.3-2.9h-5.9l-1.3,2.9h-1.3L488.6,233.4z M491.6,240.4l-2.5-5.6l-2.5,5.6H491.6z
			"/>
		<path class="st9" d="M495.8,238.9L495.8,238.9c0-3.1,2.3-5.7,5.5-5.7c2,0,3.2,0.7,4.2,1.7l-0.8,0.9c-0.9-0.9-2-1.5-3.4-1.5
			c-2.4,0-4.2,2-4.2,4.5v0c0,2.5,1.8,4.5,4.2,4.5c1.5,0,2.5-0.6,3.5-1.6l0.8,0.8c-1.1,1.1-2.4,1.9-4.4,1.9
			C498.1,244.5,495.8,242.1,495.8,238.9z"/>
		<path class="st9" d="M507.9,233.4h1.2v10.9h-1.2V233.4z"/>
		<path class="st9" d="M515.2,234.6h-3.7v-1.1h8.6v1.1h-3.7v9.8h-1.2V234.6z"/>
		<path class="st9" d="M525,233.4h1.2l5,11h-1.3l-1.3-2.9h-5.9l-1.3,2.9H520L525,233.4z M528,240.4l-2.5-5.6l-2.5,5.6H528z"/>
		<path class="st9" d="M532.2,238.9L532.2,238.9c0-3.1,2.3-5.7,5.5-5.7c2,0,3.2,0.7,4.2,1.7l-0.8,0.9c-0.9-0.9-2-1.5-3.4-1.5
			c-2.4,0-4.2,2-4.2,4.5v0c0,2.5,1.8,4.5,4.2,4.5c1.5,0,2.5-0.6,3.5-1.6l0.8,0.8c-1.1,1.1-2.4,1.9-4.4,1.9
			C534.5,244.5,532.2,242.1,532.2,238.9z"/>
		<path class="st9" d="M544.2,233.4h1.2v10.9h-1.2V233.4z"/>
		<path class="st9" d="M548.2,238.9L548.2,238.9c0-3,2.3-5.7,5.6-5.7s5.5,2.6,5.5,5.6v0c0,3-2.3,5.6-5.6,5.6
			S548.2,241.9,548.2,238.9z M558,238.9L558,238.9c0-2.5-1.8-4.5-4.3-4.5s-4.3,2-4.3,4.5v0c0,2.5,1.8,4.5,4.3,4.5
			S558,241.4,558,238.9z M554.8,230.3l1.2,0.6l-1.8,1.4h-1L554.8,230.3z"/>
		<path class="st9" d="M561.9,233.4h1.2l6.9,8.7v-8.7h1.2v10.9h-1l-7-8.9v8.9h-1.2L561.9,233.4L561.9,233.4z"/>
		<path class="st9" d="M578.9,233.4h3.8c3.4,0,5.8,2.4,5.8,5.4v0c0,3.1-2.4,5.4-5.8,5.4h-3.8V233.4z M582.7,243.2
			c2.8,0,4.5-1.9,4.5-4.3v0c0-2.4-1.8-4.3-4.5-4.3h-2.5v8.6H582.7z"/>
		<path class="st9" d="M591.1,233.4h7.9v1.1h-6.7v3.7h6v1.1h-6v3.8h6.7v1.1h-8L591.1,233.4L591.1,233.4z"/>
		<path class="st9" d="M606.2,233.4h4.1c2.5,0,4.1,1.3,4.1,3.5v0c0,2.4-2,3.6-4.3,3.6h-2.7v3.9h-1.2V233.4z M610.1,239.4
			c1.8,0,3-1,3-2.4v0c0-1.6-1.2-2.4-2.9-2.4h-2.8v4.8L610.1,239.4L610.1,239.4z"/>
		<path class="st9" d="M616.6,233.4h4.7c1.3,0,2.4,0.4,3.1,1.1c0.5,0.5,0.8,1.3,0.8,2.1v0c0,1.8-1.2,2.9-3,3.2l3.3,4.5h-1.5
			l-3.2-4.2h-3.1v4.2h-1.2V233.4z M621.2,239c1.6,0,2.8-0.8,2.8-2.2v0c0-1.3-1-2.1-2.8-2.1h-3.4v4.4H621.2z"/>
		<path class="st9" d="M627.4,238.9L627.4,238.9c0-3,2.3-5.7,5.6-5.7s5.5,2.6,5.5,5.6v0c0,3-2.3,5.6-5.6,5.6
			S627.4,241.9,627.4,238.9z M637.2,238.9L637.2,238.9c0-2.5-1.8-4.5-4.3-4.5s-4.3,2-4.3,4.5v0c0,2.5,1.8,4.5,4.3,4.5
			S637.2,241.4,637.2,238.9z"/>
		<path class="st9" d="M639.5,233.4h1.4l3.9,9.4l3.9-9.4h1.3l-4.7,11h-1.1L639.5,233.4z"/>
		<path class="st9" d="M652.1,233.4h7.9v1.1h-6.7v3.7h6v1.1h-6v3.8h6.7v1.1h-8L652.1,233.4L652.1,233.4z"/>
		<path class="st9" d="M662.6,233.4h7.9v1.1h-6.7v3.7h6v1.1h-6v3.8h6.7v1.1h-8L662.6,233.4L662.6,233.4z"/>
		<path class="st9" d="M673,233.4h3.8c3.4,0,5.8,2.4,5.8,5.4v0c0,3.1-2.4,5.4-5.8,5.4H673V233.4z M676.8,243.2
			c2.8,0,4.5-1.9,4.5-4.3v0c0-2.4-1.8-4.3-4.5-4.3h-2.5v8.6H676.8z"/>
		<path class="st9" d="M684.7,238.9L684.7,238.9c0-3,2.3-5.7,5.6-5.7s5.5,2.6,5.5,5.6v0c0,3-2.3,5.6-5.6,5.6
			S684.7,241.9,684.7,238.9z M694.5,238.9L694.5,238.9c0-2.5-1.8-4.5-4.3-4.5s-4.3,2-4.3,4.5v0c0,2.5,1.8,4.5,4.3,4.5
			C692.8,243.4,694.5,241.4,694.5,238.9z"/>
		<path class="st9" d="M698.4,233.4h4.7c1.3,0,2.4,0.4,3.1,1.1c0.5,0.5,0.8,1.3,0.8,2.1v0c0,1.8-1.2,2.9-3,3.2l3.3,4.5h-1.5
			l-3.2-4.2h-3.1v4.2h-1.2V233.4z M703,239c1.6,0,2.8-0.8,2.8-2.2v0c0-1.3-1-2.1-2.8-2.1h-3.4v4.4H703z"/>
		<path class="st9" d="M709.7,233.4h7.9v1.1h-6.7v3.7h6v1.1h-6v3.8h6.7v1.1h-8L709.7,233.4L709.7,233.4z"/>
		<path class="st9" d="M719.4,242.8l0.8-0.9c1.1,1,2.2,1.5,3.7,1.5c1.5,0,2.4-0.8,2.4-1.9v0c0-1-0.5-1.6-2.8-2.1
			c-2.5-0.6-3.7-1.4-3.7-3.1v0c0-1.7,1.5-3,3.6-3c1.6,0,2.7,0.4,3.8,1.3l-0.7,0.9c-1-0.8-2-1.2-3.2-1.2c-1.4,0-2.3,0.8-2.3,1.8v0
			c0,1,0.6,1.6,3,2.1c2.4,0.5,3.5,1.4,3.5,3.1v0c0,1.9-1.6,3.1-3.7,3.1C722.1,244.5,720.7,243.9,719.4,242.8z"/>
	</g>
	<g>
		<g>
			<path class="st6" d="M980.5,360.6v-0.2c0-21.9,16.5-39.8,40.2-39.8c14.5,0,23.2,4.8,30.4,11.9l-10.8,12.4
				c-5.9-5.4-12-8.7-19.7-8.7c-13,0-22.3,10.8-22.3,24v0.2c0,13.2,9.1,24.2,22.3,24.2c8.8,0,14.2-3.5,20.2-9l10.8,10.9
				c-7.9,8.5-16.7,13.8-31.6,13.8C997.4,400.2,980.5,382.7,980.5,360.6z"/>
			<path class="st6" d="M1059.9,382v-0.2c0-12.9,9.8-18.8,23.8-18.8c5.9,0,10.2,1,14.4,2.4v-1c0-6.9-4.3-10.8-12.7-10.8
				c-6.4,0-10.9,1.2-16.3,3.2l-4.2-12.8c6.5-2.9,12.9-4.7,22.9-4.7c9.1,0,15.7,2.4,19.9,6.6c4.4,4.4,6.4,10.9,6.4,18.8v34.2h-16.2
				v-6.4c-4.1,4.5-9.7,7.5-17.8,7.5C1069,400,1059.9,393.6,1059.9,382z M1098.2,378.1v-3c-2.9-1.3-6.6-2.2-10.7-2.2
				c-7.2,0-11.6,2.9-11.6,8.1v0.2c0,4.5,3.7,7.1,9.1,7.1C1093,388.5,1098.2,384.2,1098.2,378.1z"/>
			<path class="st6" d="M1129.3,318.6h16.7v80.3h-16.7V318.6z"/>
			<path class="st6" d="M1162,318.6h17.6v14.9H1162V318.6z M1162.5,340h16.7v59h-16.7V340z"/>
			<path class="st6" d="M1197.8,354.2h-6.9v-13.8h6.9v-3.7c0-6.5,1.7-11.2,4.7-14.3s7.6-4.6,13.5-4.6c5.3,0,8.8,0.7,11.9,1.6v13.9
				c-2.4-0.9-4.7-1.4-7.6-1.4c-3.8,0-6.1,2-6.1,6.4v2.3h13.5v13.6h-13.3v44.7h-16.7V354.2z M1237.3,318.6h17.6v14.9h-17.6V318.6z
				 M1237.7,340h16.7v59h-16.7V340z"/>
			<path class="st6" d="M1268.2,356.8h33.9v16.1h-33.9V356.8z"/>
			<path class="st6" d="M1316.8,321.9h16.9v33.7l31.2-33.7h20.5l-31.3,32.7l32.8,44.3h-20.3l-23.9-32.8l-8.9,9.2v23.5h-16.9V321.9z"
				/>
		</g>
		
			<linearGradient id="SVGID_00000123440600794382404110000011920233486511285937_" gradientUnits="userSpaceOnUse" x1="1259.1661" y1="376.3434" x2="1103.8716" y2="193.1586" gradientTransform="matrix(1 0 0 -1 0 350)">
			<stop  offset="0" style="stop-color:#B8D433"/>
			<stop  offset="1" style="stop-color:#5FB683"/>
		</linearGradient>
		<path style="fill:url(#SVGID_00000123440600794382404110000011920233486511285937_);" d="M1179.3,112.6c22,0,39.9,17.9,39.9,39.9
			s-17.9,39.9-39.9,39.9h-0.2c-52.2,0-95.4-33.2-111.8-79.8 M1179.3,112.5c-22,0-39.9-17.9-39.9-39.9s15.9-40,37.9-40l0.4,0
			c0.9,0,1.8,0,2.6,0c61.1,0,96.7,33.4,113.1,80c4.4-12.5,6.8-25.9,6.8-39.9c0-66.2-53.7-119.9-119.9-119.9
			c-66.2,0-119.9,53.7-119.9,119.9c0,14,2.4,27.4,6.8,39.9"/>
		
			<linearGradient id="SVGID_00000131331530446437645830000008736225721668486310_" gradientUnits="userSpaceOnUse" x1="-5641.5186" y1="1035.6993" x2="-5729.3872" y2="809.5812" gradientTransform="matrix(-1 0 0 1 -4520.4697 -734.7641)">
			<stop  offset="0" style="stop-color:#5FB683"/>
			<stop  offset="1" style="stop-color:#5B7A97"/>
		</linearGradient>
		<path style="fill:url(#SVGID_00000131331530446437645830000008736225721668486310_);" d="M1178.2,112.4c-22,0-39.9-17.9-39.9-39.9
			s17.9-39.9,39.9-39.9h0.2c52.2,0,93.2,21.4,115.2,79.8 M1178.2,112.5c22,0,39.9,17.9,39.9,39.9s-15.9,40-37.9,40l-0.4,0
			c-0.9,0-1.8,0.1-2.6,0c-61.7-4.5-89.5-35-109.8-80c-4.4,12.5-7.9,25.9-7.9,39.9c0,66.2,51.5,119.9,117.7,119.9
			S1297,218.6,1297,152.4c0-14,0.9-27.4-3.5-39.9"/>
	</g>
</g>
</svg>
